<?xml version="1.0" encoding="UTF-8" standalone="no"?>
<!-- Created with Inkscape (http://www.inkscape.org/) -->

<svg
   id="svg6800"
   sodipodi:modified="true"
   sodipodi:docname="us-uk.svg"
   inkscape:export-filename="/Users/miialainen/Documents/Word play/Word Play images/US-UK_Flag.png"
   height="16"
   viewBox="0 0 27 200"
   sodipodi:version="0.32"
   inkscape:export-xdpi="90"
   version="1.0"
   inkscape:output_extension="org.inkscape.output.svg.inkscape"
   inkscape:export-ydpi="90"
   inkscape:version="1.2 (dc2aedaf03, 2022-05-15)"
   width="27"
   xmlns:inkscape="http://www.inkscape.org/namespaces/inkscape"
   xmlns:sodipodi="http://sodipodi.sourceforge.net/DTD/sodipodi-0.dtd"
   xmlns="http://www.w3.org/2000/svg"
   xmlns:svg="http://www.w3.org/2000/svg"
   xmlns:rdf="http://www.w3.org/1999/02/22-rdf-syntax-ns#"
   xmlns:cc="http://creativecommons.org/ns#"
   xmlns:dc="http://purl.org/dc/elements/1.1/">
  <defs
     id="defs332" />
  <sodipodi:namedview
     id="base"
     fit-margin-left="0"
     inkscape:showpageshadow="false"
     inkscape:zoom="2.56"
     height="200px"
     borderopacity="1.0"
     inkscape:current-layer="layer1"
     inkscape:cx="9300.586"
     inkscape:cy="-13885.156"
     borderlayer="false"
     fit-margin-right="0"
     inkscape:window-maximized="1"
     showgrid="false"
     width="380px"
     inkscape:document-units="px"
     bordercolor="#666666"
     inkscape:window-x="-8"
     guidetolerance="10"
     objecttolerance="10"
     inkscape:window-y="1072"
     fit-margin-bottom="0"
     inkscape:window-width="1920"
     inkscape:pageopacity="0.0"
     inkscape:pageshadow="2"
     pagecolor="#ffffff"
     gridtolerance="10000"
     inkscape:window-height="1017"
     showborder="false"
     fit-margin-top="0"
     inkscape:pagecheckerboard="0"
     inkscape:deskcolor="#d1d1d1">
    <inkscape:grid
       id="grid3830"
       enabled="true"
       visible="true"
       snapvisiblegridlinesonly="true"
       type="xygrid"
       empspacing="5"
       originx="0"
       originy="0" />
  </sodipodi:namedview>
  <g
     id="layer4"
     inkscape:label="stripes"
     inkscape:groupmode="layer"
     transform="translate(0.5,-0.5)">
    <rect
       id="rect8767"
       style="fill:#bf0a30;fill-rule:evenodd;stroke-width:0.932491"
       height="15.896518"
       width="331.70251"
       y="182.81664"
       x="-155.16016" />
    <rect
       id="rect8769"
       style="fill:#ffffff;fill-rule:evenodd;stroke-width:0.932491"
       height="15.896518"
       width="331.70251"
       y="166.9201"
       x="-155.16016" />
    <rect
       id="rect8771"
       style="fill:#bf0a30;fill-rule:evenodd;stroke-width:0.932491"
       height="15.896518"
       width="331.70251"
       y="151.02359"
       x="-155.16016" />
    <rect
       id="rect8773"
       style="fill:#ffffff;fill-rule:evenodd;stroke-width:0.932491"
       height="15.896518"
       width="331.70251"
       y="135.12706"
       x="-155.16016" />
    <rect
       id="rect8775"
       style="fill:#bf0a30;fill-rule:evenodd;stroke-width:0.932491"
       height="14.902987"
       width="331.70251"
       y="120.22408"
       x="-155.16016" />
    <rect
       id="rect8777"
       style="fill:#ffffff;fill-rule:evenodd;stroke-width:0.932491"
       height="14.902987"
       width="331.70251"
       y="105.32109"
       x="-155.16016" />
    <rect
       id="rect8779"
       style="fill:#bf0a30;fill-rule:evenodd;stroke-width:0.932491"
       height="14.902987"
       width="331.70251"
       y="90.418091"
       x="-155.16016" />
    <rect
       id="rect8781"
       style="fill:#ffffff;fill-rule:evenodd;stroke-width:0.932491"
       height="14.902987"
       width="331.70251"
       y="75.515114"
       x="-155.16016" />
    <rect
       id="rect8783"
       style="fill:#bf0a30;fill-rule:evenodd;stroke-width:0.932491"
       height="14.902987"
       width="331.70251"
       y="60.612129"
       x="-155.16016" />
    <rect
       id="rect8785"
       style="fill:#ffffff;fill-rule:evenodd;stroke-width:0.932491"
       height="14.902987"
       width="331.70251"
       y="45.709141"
       x="-155.16016" />
    <rect
       id="rect8787"
       style="fill:#bf0a30;fill-rule:evenodd;stroke-width:0.932491"
       height="14.902987"
       width="331.70251"
       y="30.806154"
       x="-155.16016" />
    <rect
       id="rect8791"
       style="fill:#ffffff;fill-rule:evenodd;stroke-width:0.932491"
       height="14.902987"
       width="331.70251"
       y="15.90317"
       x="-155.16016" />
    <rect
       id="rect8793"
       style="fill:#bf0a30;fill-rule:evenodd;stroke-width:0.932491"
       height="14.902987"
       width="331.70251"
       y="1.0001839"
       x="-155.16016" />
  </g>
  <g
     id="layer5"
     inkscape:label="field"
     inkscape:groupmode="layer"
     transform="translate(0.5,-0.5)">
    <rect
       id="rect8796"
       style="fill:#002868;fill-rule:evenodd;stroke-width:0.932491"
       height="104.32092"
       width="133.03108"
       y="1.0001839"
       x="-155.16016" />
  </g>
  <g
     id="layer6"
     inkscape:label="stars"
     inkscape:groupmode="layer"
     transform="translate(0.5,-0.5)">
    <path
       id="path8825"
       style="fill:#ffffff;fill-rule:evenodd"
       sodipodi:type="star"
       sodipodi:sides="5"
       sodipodi:r1="6.1463628"
       sodipodi:r2="2.810354"
       sodipodi:arg1="-2.9229237"
       sodipodi:arg2="-2.2946052"
       transform="matrix(0.91782693,0.08936923,-0.07520632,1.0906005,-230.6579,-75.910155)"
       inkscape:randomized="0"
       sodipodi:cy="148"
       sodipodi:cx="106.33333"
       inkscape:rounded="0"
       inkscape:flatsided="false"
       d="m 100.33333,146.66667 4.13886,-0.77244 1.27511,-4.01259 2.01361,3.69759 4.21023,-0.0273 -2.89438,3.05767 1.32696,3.99575 -3.80244,-1.80785 -3.39013,2.49677 0.54435,-4.17499 z" />
    <path
       id="path8827"
       style="fill:#ffffff;fill-rule:evenodd"
       sodipodi:type="star"
       sodipodi:sides="5"
       sodipodi:r1="6.1463628"
       sodipodi:r2="2.810354"
       sodipodi:arg1="-2.9229237"
       sodipodi:arg2="-2.2946052"
       transform="matrix(0.91782693,0.08936923,-0.07520632,1.0906005,-208.7777,-75.910155)"
       inkscape:randomized="0"
       sodipodi:cy="148"
       sodipodi:cx="106.33333"
       inkscape:rounded="0"
       inkscape:flatsided="false"
       d="m 100.33333,146.66667 4.13886,-0.77244 1.27511,-4.01259 2.01361,3.69759 4.21023,-0.0273 -2.89438,3.05767 1.32696,3.99575 -3.80244,-1.80785 -3.39013,2.49677 0.54435,-4.17499 z" />
    <path
       id="path8829"
       style="fill:#ffffff;fill-rule:evenodd"
       sodipodi:type="star"
       sodipodi:sides="5"
       sodipodi:r1="6.1463628"
       sodipodi:r2="2.810354"
       sodipodi:arg1="-2.9229237"
       sodipodi:arg2="-2.2946052"
       transform="matrix(0.91782693,0.08936923,-0.07520632,1.0906005,-186.0225,-75.910155)"
       inkscape:randomized="0"
       sodipodi:cy="148"
       sodipodi:cx="106.33333"
       inkscape:rounded="0"
       inkscape:flatsided="false"
       d="m 100.33333,146.66667 4.13886,-0.77244 1.27511,-4.01259 2.01361,3.69759 4.21023,-0.0273 -2.89438,3.05767 1.32696,3.99575 -3.80244,-1.80785 -3.39013,2.49677 0.54435,-4.17499 z" />
    <path
       id="path8831"
       style="fill:#ffffff;fill-rule:evenodd"
       sodipodi:type="star"
       sodipodi:sides="5"
       sodipodi:r1="6.1463628"
       sodipodi:r2="2.810354"
       sodipodi:arg1="-2.9229237"
       sodipodi:arg2="-2.2946052"
       transform="matrix(0.91782693,0.08936923,-0.07520632,1.0906005,-164.1424,-75.910155)"
       inkscape:randomized="0"
       sodipodi:cy="148"
       sodipodi:cx="106.33333"
       inkscape:rounded="0"
       inkscape:flatsided="false"
       d="m 100.33333,146.66667 4.13886,-0.77244 1.27511,-4.01259 2.01361,3.69759 4.21023,-0.0273 -2.89438,3.05767 1.32696,3.99575 -3.80244,-1.80785 -3.39013,2.49677 0.54435,-4.17499 z" />
    <path
       id="path8833"
       style="fill:#ffffff;fill-rule:evenodd"
       sodipodi:type="star"
       sodipodi:sides="5"
       sodipodi:r1="6.1463628"
       sodipodi:r2="2.810354"
       sodipodi:arg1="-2.9229237"
       sodipodi:arg2="-2.2946052"
       transform="matrix(0.91782693,0.08936923,-0.07520632,1.0906005,-142.2622,-75.910155)"
       inkscape:randomized="0"
       sodipodi:cy="148"
       sodipodi:cx="106.33333"
       inkscape:rounded="0"
       inkscape:flatsided="false"
       d="m 100.33333,146.66667 4.13886,-0.77244 1.27511,-4.01259 2.01361,3.69759 4.21023,-0.0273 -2.89438,3.05767 1.32696,3.99575 -3.80244,-1.80785 -3.39013,2.49677 0.54435,-4.17499 z" />
    <path
       id="path8835"
       style="fill:#ffffff;fill-rule:evenodd"
       sodipodi:type="star"
       sodipodi:sides="5"
       sodipodi:r1="6.1463628"
       sodipodi:r2="2.810354"
       sodipodi:arg1="-2.9229237"
       sodipodi:arg2="-2.2946052"
       transform="matrix(0.91782693,0.08936923,-0.07520632,1.0906005,-119.5069,-75.910155)"
       inkscape:randomized="0"
       sodipodi:cy="148"
       sodipodi:cx="106.33333"
       inkscape:rounded="0"
       inkscape:flatsided="false"
       d="m 100.33333,146.66667 4.13886,-0.77244 1.27511,-4.01259 2.01361,3.69759 4.21023,-0.0273 -2.89438,3.05767 1.32696,3.99575 -3.80244,-1.80785 -3.39013,2.49677 0.54435,-4.17499 z" />
    <path
       id="path8837"
       style="fill:#ffffff;fill-rule:evenodd"
       sodipodi:type="star"
       sodipodi:sides="5"
       sodipodi:r1="6.1463628"
       sodipodi:r2="2.810354"
       sodipodi:arg1="-2.9229237"
       sodipodi:arg2="-2.2946052"
       transform="matrix(0.91782693,0.08936923,-0.07520632,1.0906005,-219.2802,-85.845483)"
       inkscape:randomized="0"
       sodipodi:cy="148"
       sodipodi:cx="106.33333"
       inkscape:rounded="0"
       inkscape:flatsided="false"
       d="m 100.33333,146.66667 4.13886,-0.77244 1.27511,-4.01259 2.01361,3.69759 4.21023,-0.0273 -2.89438,3.05767 1.32696,3.99575 -3.80244,-1.80785 -3.39013,2.49677 0.54435,-4.17499 z" />
    <path
       id="path8839"
       style="fill:#ffffff;fill-rule:evenodd"
       sodipodi:type="star"
       sodipodi:sides="5"
       sodipodi:r1="6.1463628"
       sodipodi:r2="2.810354"
       sodipodi:arg1="-2.9229237"
       sodipodi:arg2="-2.2946052"
       transform="matrix(0.91782693,0.08936923,-0.07520632,1.0906005,-230.6579,-96.774336)"
       inkscape:randomized="0"
       sodipodi:cy="148"
       sodipodi:cx="106.33333"
       inkscape:rounded="0"
       inkscape:flatsided="false"
       d="m 100.33333,146.66667 4.13886,-0.77244 1.27511,-4.01259 2.01361,3.69759 4.21023,-0.0273 -2.89438,3.05767 1.32696,3.99575 -3.80244,-1.80785 -3.39013,2.49677 0.54435,-4.17499 z" />
    <path
       id="path8841"
       style="fill:#ffffff;fill-rule:evenodd"
       sodipodi:type="star"
       sodipodi:sides="5"
       sodipodi:r1="6.1463628"
       sodipodi:r2="2.810354"
       sodipodi:arg1="-2.9229237"
       sodipodi:arg2="-2.2946052"
       transform="matrix(0.91782693,0.08936923,-0.07520632,1.0906005,-219.2802,-106.70867)"
       inkscape:randomized="0"
       sodipodi:cy="148"
       sodipodi:cx="106.33333"
       inkscape:rounded="0"
       inkscape:flatsided="false"
       d="m 100.33333,146.66667 4.13886,-0.77244 1.27511,-4.01259 2.01361,3.69759 4.21023,-0.0273 -2.89438,3.05767 1.32696,3.99575 -3.80244,-1.80785 -3.39013,2.49677 0.54435,-4.17499 z" />
    <path
       id="path8843"
       style="fill:#ffffff;fill-rule:evenodd"
       sodipodi:type="star"
       sodipodi:sides="5"
       sodipodi:r1="6.1463628"
       sodipodi:r2="2.810354"
       sodipodi:arg1="-2.9229237"
       sodipodi:arg2="-2.2946052"
       transform="matrix(0.91782693,0.08936923,-0.07520632,1.0906005,-230.6579,-117.63753)"
       inkscape:randomized="0"
       sodipodi:cy="148"
       sodipodi:cx="106.33333"
       inkscape:rounded="0"
       inkscape:flatsided="false"
       d="m 100.33333,146.66667 4.13886,-0.77244 1.27511,-4.01259 2.01361,3.69759 4.21023,-0.0273 -2.89438,3.05767 1.32696,3.99575 -3.80244,-1.80785 -3.39013,2.49677 0.54435,-4.17499 z" />
    <path
       id="path8845"
       style="fill:#ffffff;fill-rule:evenodd"
       sodipodi:type="star"
       sodipodi:sides="5"
       sodipodi:r1="6.1463628"
       sodipodi:r2="2.810354"
       sodipodi:arg1="-2.9229237"
       sodipodi:arg2="-2.2946052"
       transform="matrix(0.91782693,0.08936923,-0.07520632,1.0906005,-219.2802,-127.57285)"
       inkscape:randomized="0"
       sodipodi:cy="148"
       sodipodi:cx="106.33333"
       inkscape:rounded="0"
       inkscape:flatsided="false"
       d="m 100.33333,146.66667 4.13886,-0.77244 1.27511,-4.01259 2.01361,3.69759 4.21023,-0.0273 -2.89438,3.05767 1.32696,3.99575 -3.80244,-1.80785 -3.39013,2.49677 0.54435,-4.17499 z" />
    <path
       id="path8847"
       style="fill:#ffffff;fill-rule:evenodd"
       sodipodi:type="star"
       sodipodi:sides="5"
       sodipodi:r1="6.1463628"
       sodipodi:r2="2.810354"
       sodipodi:arg1="-2.9229237"
       sodipodi:arg2="-2.2946052"
       transform="matrix(0.91782693,0.08936923,-0.07520632,1.0906005,-230.6579,-138.5017)"
       inkscape:randomized="0"
       sodipodi:cy="148"
       sodipodi:cx="106.33333"
       inkscape:rounded="0"
       inkscape:flatsided="false"
       d="m 100.33333,146.66667 4.13886,-0.77244 1.27511,-4.01259 2.01361,3.69759 4.21023,-0.0273 -2.89438,3.05767 1.32696,3.99575 -3.80244,-1.80785 -3.39013,2.49677 0.54435,-4.17499 z" />
    <path
       id="path8849"
       style="fill:#ffffff;fill-rule:evenodd"
       sodipodi:type="star"
       sodipodi:sides="5"
       sodipodi:r1="6.1463628"
       sodipodi:r2="2.810354"
       sodipodi:arg1="-2.9229237"
       sodipodi:arg2="-2.2946052"
       transform="matrix(0.91782693,0.08936923,-0.07520632,1.0906005,-219.2802,-148.43703)"
       inkscape:randomized="0"
       sodipodi:cy="148"
       sodipodi:cx="106.33333"
       inkscape:rounded="0"
       inkscape:flatsided="false"
       d="m 100.33333,146.66667 4.13886,-0.77244 1.27511,-4.01259 2.01361,3.69759 4.21023,-0.0273 -2.89438,3.05767 1.32696,3.99575 -3.80244,-1.80785 -3.39013,2.49677 0.54435,-4.17499 z" />
    <path
       id="path8851"
       style="fill:#ffffff;fill-rule:evenodd"
       sodipodi:type="star"
       sodipodi:sides="5"
       sodipodi:r1="6.1463628"
       sodipodi:r2="2.810354"
       sodipodi:arg1="-2.9229237"
       sodipodi:arg2="-2.2946052"
       transform="matrix(0.91782693,0.08936923,-0.07520632,1.0906005,-230.6579,-159.36588)"
       inkscape:randomized="0"
       sodipodi:cy="148"
       sodipodi:cx="106.33333"
       inkscape:rounded="0"
       inkscape:flatsided="false"
       d="m 100.33333,146.66667 4.13886,-0.77244 1.27511,-4.01259 2.01361,3.69759 4.21023,-0.0273 -2.89438,3.05767 1.32696,3.99575 -3.80244,-1.80785 -3.39013,2.49677 0.54435,-4.17499 z" />
    <path
       id="path8853"
       style="fill:#ffffff;fill-rule:evenodd"
       sodipodi:type="star"
       sodipodi:sides="5"
       sodipodi:r1="6.1463628"
       sodipodi:r2="2.810354"
       sodipodi:arg1="-2.9229237"
       sodipodi:arg2="-2.2946052"
       transform="matrix(0.91782693,0.08936923,-0.07520632,1.0906005,-197.4001,-85.845483)"
       inkscape:randomized="0"
       sodipodi:cy="148"
       sodipodi:cx="106.33333"
       inkscape:rounded="0"
       inkscape:flatsided="false"
       d="m 100.33333,146.66667 4.13886,-0.77244 1.27511,-4.01259 2.01361,3.69759 4.21023,-0.0273 -2.89438,3.05767 1.32696,3.99575 -3.80244,-1.80785 -3.39013,2.49677 0.54435,-4.17499 z" />
    <path
       id="path8855"
       style="fill:#ffffff;fill-rule:evenodd"
       sodipodi:type="star"
       sodipodi:sides="5"
       sodipodi:r1="6.1463628"
       sodipodi:r2="2.810354"
       sodipodi:arg1="-2.9229237"
       sodipodi:arg2="-2.2946052"
       transform="matrix(0.91782693,0.08936923,-0.07520632,1.0906005,-208.7777,-96.774336)"
       inkscape:randomized="0"
       sodipodi:cy="148"
       sodipodi:cx="106.33333"
       inkscape:rounded="0"
       inkscape:flatsided="false"
       d="m 100.33333,146.66667 4.13886,-0.77244 1.27511,-4.01259 2.01361,3.69759 4.21023,-0.0273 -2.89438,3.05767 1.32696,3.99575 -3.80244,-1.80785 -3.39013,2.49677 0.54435,-4.17499 z" />
    <path
       id="path8857"
       style="fill:#ffffff;fill-rule:evenodd"
       sodipodi:type="star"
       sodipodi:sides="5"
       sodipodi:r1="6.1463628"
       sodipodi:r2="2.810354"
       sodipodi:arg1="-2.9229237"
       sodipodi:arg2="-2.2946052"
       transform="matrix(0.91782693,0.08936923,-0.07520632,1.0906005,-197.4001,-106.70867)"
       inkscape:randomized="0"
       sodipodi:cy="148"
       sodipodi:cx="106.33333"
       inkscape:rounded="0"
       inkscape:flatsided="false"
       d="m 100.33333,146.66667 4.13886,-0.77244 1.27511,-4.01259 2.01361,3.69759 4.21023,-0.0273 -2.89438,3.05767 1.32696,3.99575 -3.80244,-1.80785 -3.39013,2.49677 0.54435,-4.17499 z" />
    <path
       id="path8859"
       style="fill:#ffffff;fill-rule:evenodd"
       sodipodi:type="star"
       sodipodi:sides="5"
       sodipodi:r1="6.1463628"
       sodipodi:r2="2.810354"
       sodipodi:arg1="-2.9229237"
       sodipodi:arg2="-2.2946052"
       transform="matrix(0.91782693,0.08936923,-0.07520632,1.0906005,-208.7777,-117.63753)"
       inkscape:randomized="0"
       sodipodi:cy="148"
       sodipodi:cx="106.33333"
       inkscape:rounded="0"
       inkscape:flatsided="false"
       d="m 100.33333,146.66667 4.13886,-0.77244 1.27511,-4.01259 2.01361,3.69759 4.21023,-0.0273 -2.89438,3.05767 1.32696,3.99575 -3.80244,-1.80785 -3.39013,2.49677 0.54435,-4.17499 z" />
    <path
       id="path8861"
       style="fill:#ffffff;fill-rule:evenodd"
       sodipodi:type="star"
       sodipodi:sides="5"
       sodipodi:r1="6.1463628"
       sodipodi:r2="2.810354"
       sodipodi:arg1="-2.9229237"
       sodipodi:arg2="-2.2946052"
       transform="matrix(0.91782693,0.08936923,-0.07520632,1.0906005,-197.4001,-127.57285)"
       inkscape:randomized="0"
       sodipodi:cy="148"
       sodipodi:cx="106.33333"
       inkscape:rounded="0"
       inkscape:flatsided="false"
       d="m 100.33333,146.66667 4.13886,-0.77244 1.27511,-4.01259 2.01361,3.69759 4.21023,-0.0273 -2.89438,3.05767 1.32696,3.99575 -3.80244,-1.80785 -3.39013,2.49677 0.54435,-4.17499 z" />
    <path
       id="path8863"
       style="fill:#ffffff;fill-rule:evenodd"
       sodipodi:type="star"
       sodipodi:sides="5"
       sodipodi:r1="6.1463628"
       sodipodi:r2="2.810354"
       sodipodi:arg1="-2.9229237"
       sodipodi:arg2="-2.2946052"
       transform="matrix(0.91782693,0.08936923,-0.07520632,1.0906005,-208.7777,-138.5017)"
       inkscape:randomized="0"
       sodipodi:cy="148"
       sodipodi:cx="106.33333"
       inkscape:rounded="0"
       inkscape:flatsided="false"
       d="m 100.33333,146.66667 4.13886,-0.77244 1.27511,-4.01259 2.01361,3.69759 4.21023,-0.0273 -2.89438,3.05767 1.32696,3.99575 -3.80244,-1.80785 -3.39013,2.49677 0.54435,-4.17499 z" />
    <path
       id="path8865"
       style="fill:#ffffff;fill-rule:evenodd"
       sodipodi:type="star"
       sodipodi:sides="5"
       sodipodi:r1="6.1463628"
       sodipodi:r2="2.810354"
       sodipodi:arg1="-2.9229237"
       sodipodi:arg2="-2.2946052"
       transform="matrix(0.91782693,0.08936923,-0.07520632,1.0906005,-197.4001,-148.43703)"
       inkscape:randomized="0"
       sodipodi:cy="148"
       sodipodi:cx="106.33333"
       inkscape:rounded="0"
       inkscape:flatsided="false"
       d="m 100.33333,146.66667 4.13886,-0.77244 1.27511,-4.01259 2.01361,3.69759 4.21023,-0.0273 -2.89438,3.05767 1.32696,3.99575 -3.80244,-1.80785 -3.39013,2.49677 0.54435,-4.17499 z" />
    <path
       id="path8867"
       style="fill:#ffffff;fill-rule:evenodd"
       sodipodi:type="star"
       sodipodi:sides="5"
       sodipodi:r1="6.1463628"
       sodipodi:r2="2.810354"
       sodipodi:arg1="-2.9229237"
       sodipodi:arg2="-2.2946052"
       transform="matrix(0.91782693,0.08936923,-0.07520632,1.0906005,-208.7777,-159.36588)"
       inkscape:randomized="0"
       sodipodi:cy="148"
       sodipodi:cx="106.33333"
       inkscape:rounded="0"
       inkscape:flatsided="false"
       d="m 100.33333,146.66667 4.13886,-0.77244 1.27511,-4.01259 2.01361,3.69759 4.21023,-0.0273 -2.89438,3.05767 1.32696,3.99575 -3.80244,-1.80785 -3.39013,2.49677 0.54435,-4.17499 z" />
    <path
       id="path8869"
       style="fill:#ffffff;fill-rule:evenodd"
       sodipodi:type="star"
       sodipodi:sides="5"
       sodipodi:r1="6.1463628"
       sodipodi:r2="2.810354"
       sodipodi:arg1="-2.9229237"
       sodipodi:arg2="-2.2946052"
       transform="matrix(0.91782693,0.08936923,-0.07520632,1.0906005,-175.52,-85.845483)"
       inkscape:randomized="0"
       sodipodi:cy="148"
       sodipodi:cx="106.33333"
       inkscape:rounded="0"
       inkscape:flatsided="false"
       d="m 100.33333,146.66667 4.13886,-0.77244 1.27511,-4.01259 2.01361,3.69759 4.21023,-0.0273 -2.89438,3.05767 1.32696,3.99575 -3.80244,-1.80785 -3.39013,2.49677 0.54435,-4.17499 z" />
    <path
       id="path8871"
       style="fill:#ffffff;fill-rule:evenodd"
       sodipodi:type="star"
       sodipodi:sides="5"
       sodipodi:r1="6.1463628"
       sodipodi:r2="2.810354"
       sodipodi:arg1="-2.9229237"
       sodipodi:arg2="-2.2946052"
       transform="matrix(0.91782693,0.08936923,-0.07520632,1.0906005,-186.0225,-96.774336)"
       inkscape:randomized="0"
       sodipodi:cy="148"
       sodipodi:cx="106.33333"
       inkscape:rounded="0"
       inkscape:flatsided="false"
       d="m 100.33333,146.66667 4.13886,-0.77244 1.27511,-4.01259 2.01361,3.69759 4.21023,-0.0273 -2.89438,3.05767 1.32696,3.99575 -3.80244,-1.80785 -3.39013,2.49677 0.54435,-4.17499 z" />
    <path
       id="path8873"
       style="fill:#ffffff;fill-rule:evenodd"
       sodipodi:type="star"
       sodipodi:sides="5"
       sodipodi:r1="6.1463628"
       sodipodi:r2="2.810354"
       sodipodi:arg1="-2.9229237"
       sodipodi:arg2="-2.2946052"
       transform="matrix(0.91782693,0.08936923,-0.07520632,1.0906005,-142.2622,-96.774336)"
       inkscape:randomized="0"
       sodipodi:cy="148"
       sodipodi:cx="106.33333"
       inkscape:rounded="0"
       inkscape:flatsided="false"
       d="m 100.33333,146.66667 4.13886,-0.77244 1.27511,-4.01259 2.01361,3.69759 4.21023,-0.0273 -2.89438,3.05767 1.32696,3.99575 -3.80244,-1.80785 -3.39013,2.49677 0.54435,-4.17499 z" />
    <path
       id="path8875"
       style="fill:#ffffff;fill-rule:evenodd"
       sodipodi:type="star"
       sodipodi:sides="5"
       sodipodi:r1="6.1463628"
       sodipodi:r2="2.810354"
       sodipodi:arg1="-2.9229237"
       sodipodi:arg2="-2.2946052"
       transform="matrix(0.91782693,0.08936923,-0.07520632,1.0906005,-164.1424,-96.774336)"
       inkscape:randomized="0"
       sodipodi:cy="148"
       sodipodi:cx="106.33333"
       inkscape:rounded="0"
       inkscape:flatsided="false"
       d="m 100.33333,146.66667 4.13886,-0.77244 1.27511,-4.01259 2.01361,3.69759 4.21023,-0.0273 -2.89438,3.05767 1.32696,3.99575 -3.80244,-1.80785 -3.39013,2.49677 0.54435,-4.17499 z" />
    <path
       id="path8877"
       style="fill:#ffffff;fill-rule:evenodd"
       sodipodi:type="star"
       sodipodi:sides="5"
       sodipodi:r1="6.1463628"
       sodipodi:r2="2.810354"
       sodipodi:arg1="-2.9229237"
       sodipodi:arg2="-2.2946052"
       transform="matrix(0.91782693,0.08936923,-0.07520632,1.0906005,-130.8846,-85.845483)"
       inkscape:randomized="0"
       sodipodi:cy="148"
       sodipodi:cx="106.33333"
       inkscape:rounded="0"
       inkscape:flatsided="false"
       d="m 100.33333,146.66667 4.13886,-0.77244 1.27511,-4.01259 2.01361,3.69759 4.21023,-0.0273 -2.89438,3.05767 1.32696,3.99575 -3.80244,-1.80785 -3.39013,2.49677 0.54435,-4.17499 z" />
    <path
       id="path8879"
       style="fill:#ffffff;fill-rule:evenodd"
       sodipodi:type="star"
       sodipodi:sides="5"
       sodipodi:r1="6.1463628"
       sodipodi:r2="2.810354"
       sodipodi:arg1="-2.9229237"
       sodipodi:arg2="-2.2946052"
       transform="matrix(0.91782693,0.08936923,-0.07520632,1.0906005,-152.765,-85.845483)"
       inkscape:randomized="0"
       sodipodi:cy="148"
       sodipodi:cx="106.33333"
       inkscape:rounded="0"
       inkscape:flatsided="false"
       d="m 100.33333,146.66667 4.13886,-0.77244 1.27511,-4.01259 2.01361,3.69759 4.21023,-0.0273 -2.89438,3.05767 1.32696,3.99575 -3.80244,-1.80785 -3.39013,2.49677 0.54435,-4.17499 z" />
    <path
       id="path8881"
       style="fill:#ffffff;fill-rule:evenodd"
       sodipodi:type="star"
       sodipodi:sides="5"
       sodipodi:r1="6.1463628"
       sodipodi:r2="2.810354"
       sodipodi:arg1="-2.9229237"
       sodipodi:arg2="-2.2946052"
       transform="matrix(0.91782693,0.08936923,-0.07520632,1.0906005,-186.0225,-159.36588)"
       inkscape:randomized="0"
       sodipodi:cy="148"
       sodipodi:cx="106.33333"
       inkscape:rounded="0"
       inkscape:flatsided="false"
       d="m 100.33333,146.66667 4.13886,-0.77244 1.27511,-4.01259 2.01361,3.69759 4.21023,-0.0273 -2.89438,3.05767 1.32696,3.99575 -3.80244,-1.80785 -3.39013,2.49677 0.54435,-4.17499 z" />
    <path
       id="path8883"
       style="fill:#ffffff;fill-rule:evenodd"
       sodipodi:type="star"
       sodipodi:sides="5"
       sodipodi:r1="6.1463628"
       sodipodi:r2="2.810354"
       sodipodi:arg1="-2.9229237"
       sodipodi:arg2="-2.2946052"
       transform="matrix(0.91782693,0.08936923,-0.07520632,1.0906005,-175.52,-148.43703)"
       inkscape:randomized="0"
       sodipodi:cy="148"
       sodipodi:cx="106.33333"
       inkscape:rounded="0"
       inkscape:flatsided="false"
       d="m 100.33333,146.66667 4.13886,-0.77244 1.27511,-4.01259 2.01361,3.69759 4.21023,-0.0273 -2.89438,3.05767 1.32696,3.99575 -3.80244,-1.80785 -3.39013,2.49677 0.54435,-4.17499 z" />
    <path
       id="path8885"
       style="fill:#ffffff;fill-rule:evenodd"
       sodipodi:type="star"
       sodipodi:sides="5"
       sodipodi:r1="6.1463628"
       sodipodi:r2="2.810354"
       sodipodi:arg1="-2.9229237"
       sodipodi:arg2="-2.2946052"
       transform="matrix(0.91782693,0.08936923,-0.07520632,1.0906005,-186.0225,-138.5017)"
       inkscape:randomized="0"
       sodipodi:cy="148"
       sodipodi:cx="106.33333"
       inkscape:rounded="0"
       inkscape:flatsided="false"
       d="m 100.33333,146.66667 4.13886,-0.77244 1.27511,-4.01259 2.01361,3.69759 4.21023,-0.0273 -2.89438,3.05767 1.32696,3.99575 -3.80244,-1.80785 -3.39013,2.49677 0.54435,-4.17499 z" />
    <path
       id="path8887"
       style="fill:#ffffff;fill-rule:evenodd"
       sodipodi:type="star"
       sodipodi:sides="5"
       sodipodi:r1="6.1463628"
       sodipodi:r2="2.810354"
       sodipodi:arg1="-2.9229237"
       sodipodi:arg2="-2.2946052"
       transform="matrix(0.91782693,0.08936923,-0.07520632,1.0906005,-175.52,-127.57285)"
       inkscape:randomized="0"
       sodipodi:cy="148"
       sodipodi:cx="106.33333"
       inkscape:rounded="0"
       inkscape:flatsided="false"
       d="m 100.33333,146.66667 4.13886,-0.77244 1.27511,-4.01259 2.01361,3.69759 4.21023,-0.0273 -2.89438,3.05767 1.32696,3.99575 -3.80244,-1.80785 -3.39013,2.49677 0.54435,-4.17499 z" />
    <path
       id="path8889"
       style="fill:#ffffff;fill-rule:evenodd"
       sodipodi:type="star"
       sodipodi:sides="5"
       sodipodi:r1="6.1463628"
       sodipodi:r2="2.810354"
       sodipodi:arg1="-2.9229237"
       sodipodi:arg2="-2.2946052"
       transform="matrix(0.91782693,0.08936923,-0.07520632,1.0906005,-186.0225,-117.63753)"
       inkscape:randomized="0"
       sodipodi:cy="148"
       sodipodi:cx="106.33333"
       inkscape:rounded="0"
       inkscape:flatsided="false"
       d="m 100.33333,146.66667 4.13886,-0.77244 1.27511,-4.01259 2.01361,3.69759 4.21023,-0.0273 -2.89438,3.05767 1.32696,3.99575 -3.80244,-1.80785 -3.39013,2.49677 0.54435,-4.17499 z" />
    <path
       id="path8891"
       style="fill:#ffffff;fill-rule:evenodd"
       sodipodi:type="star"
       sodipodi:sides="5"
       sodipodi:r1="6.1463628"
       sodipodi:r2="2.810354"
       sodipodi:arg1="-2.9229237"
       sodipodi:arg2="-2.2946052"
       transform="matrix(0.91782693,0.08936923,-0.07520632,1.0906005,-175.52,-106.70867)"
       inkscape:randomized="0"
       sodipodi:cy="148"
       sodipodi:cx="106.33333"
       inkscape:rounded="0"
       inkscape:flatsided="false"
       d="m 100.33333,146.66667 4.13886,-0.77244 1.27511,-4.01259 2.01361,3.69759 4.21023,-0.0273 -2.89438,3.05767 1.32696,3.99575 -3.80244,-1.80785 -3.39013,2.49677 0.54435,-4.17499 z" />
    <path
       id="path8893"
       style="fill:#ffffff;fill-rule:evenodd"
       sodipodi:type="star"
       sodipodi:sides="5"
       sodipodi:r1="6.1463628"
       sodipodi:r2="2.810354"
       sodipodi:arg1="-2.9229237"
       sodipodi:arg2="-2.2946052"
       transform="matrix(0.91782693,0.08936923,-0.07520632,1.0906005,-119.5069,-96.774336)"
       inkscape:randomized="0"
       sodipodi:cy="148"
       sodipodi:cx="106.33333"
       inkscape:rounded="0"
       inkscape:flatsided="false"
       d="m 100.33333,146.66667 4.13886,-0.77244 1.27511,-4.01259 2.01361,3.69759 4.21023,-0.0273 -2.89438,3.05767 1.32696,3.99575 -3.80244,-1.80785 -3.39013,2.49677 0.54435,-4.17499 z" />
    <path
       id="path8895"
       style="fill:#ffffff;fill-rule:evenodd"
       sodipodi:type="star"
       sodipodi:sides="5"
       sodipodi:r1="6.1463628"
       sodipodi:r2="2.810354"
       sodipodi:arg1="-2.9229237"
       sodipodi:arg2="-2.2946052"
       transform="matrix(0.91782693,0.08936923,-0.07520632,1.0906005,-164.1424,-117.63753)"
       inkscape:randomized="0"
       sodipodi:cy="148"
       sodipodi:cx="106.33333"
       inkscape:rounded="0"
       inkscape:flatsided="false"
       d="m 100.33333,146.66667 4.13886,-0.77244 1.27511,-4.01259 2.01361,3.69759 4.21023,-0.0273 -2.89438,3.05767 1.32696,3.99575 -3.80244,-1.80785 -3.39013,2.49677 0.54435,-4.17499 z" />
    <path
       id="path8897"
       style="fill:#ffffff;fill-rule:evenodd"
       sodipodi:type="star"
       sodipodi:sides="5"
       sodipodi:r1="6.1463628"
       sodipodi:r2="2.810354"
       sodipodi:arg1="-2.9229237"
       sodipodi:arg2="-2.2946052"
       transform="matrix(0.91782693,0.08936923,-0.07520632,1.0906005,-164.1424,-159.36588)"
       inkscape:randomized="0"
       sodipodi:cy="148"
       sodipodi:cx="106.33333"
       inkscape:rounded="0"
       inkscape:flatsided="false"
       d="m 100.33333,146.66667 4.13886,-0.77244 1.27511,-4.01259 2.01361,3.69759 4.21023,-0.0273 -2.89438,3.05767 1.32696,3.99575 -3.80244,-1.80785 -3.39013,2.49677 0.54435,-4.17499 z" />
    <path
       id="path8899"
       style="fill:#ffffff;fill-rule:evenodd"
       sodipodi:type="star"
       sodipodi:sides="5"
       sodipodi:r1="6.1463628"
       sodipodi:r2="2.810354"
       sodipodi:arg1="-2.9229237"
       sodipodi:arg2="-2.2946052"
       transform="matrix(0.91782693,0.08936923,-0.07520632,1.0906005,-164.1424,-138.5017)"
       inkscape:randomized="0"
       sodipodi:cy="148"
       sodipodi:cx="106.33333"
       inkscape:rounded="0"
       inkscape:flatsided="false"
       d="m 100.33333,146.66667 4.13886,-0.77244 1.27511,-4.01259 2.01361,3.69759 4.21023,-0.0273 -2.89438,3.05767 1.32696,3.99575 -3.80244,-1.80785 -3.39013,2.49677 0.54435,-4.17499 z" />
    <path
       id="path8901"
       style="fill:#ffffff;fill-rule:evenodd"
       sodipodi:type="star"
       sodipodi:sides="5"
       sodipodi:r1="6.1463628"
       sodipodi:r2="2.810354"
       sodipodi:arg1="-2.9229237"
       sodipodi:arg2="-2.2946052"
       transform="matrix(0.91782693,0.08936923,-0.07520632,1.0906005,-130.8846,-106.70867)"
       inkscape:randomized="0"
       sodipodi:cy="148"
       sodipodi:cx="106.33333"
       inkscape:rounded="0"
       inkscape:flatsided="false"
       d="m 100.33333,146.66667 4.13886,-0.77244 1.27511,-4.01259 2.01361,3.69759 4.21023,-0.0273 -2.89438,3.05767 1.32696,3.99575 -3.80244,-1.80785 -3.39013,2.49677 0.54435,-4.17499 z" />
    <path
       id="path8903"
       style="fill:#ffffff;fill-rule:evenodd"
       sodipodi:type="star"
       sodipodi:sides="5"
       sodipodi:r1="6.1463628"
       sodipodi:r2="2.810354"
       sodipodi:arg1="-2.9229237"
       sodipodi:arg2="-2.2946052"
       transform="matrix(0.91782693,0.08936923,-0.07520632,1.0906005,-152.765,-106.70867)"
       inkscape:randomized="0"
       sodipodi:cy="148"
       sodipodi:cx="106.33333"
       inkscape:rounded="0"
       inkscape:flatsided="false"
       d="m 100.33333,146.66667 4.13886,-0.77244 1.27511,-4.01259 2.01361,3.69759 4.21023,-0.0273 -2.89438,3.05767 1.32696,3.99575 -3.80244,-1.80785 -3.39013,2.49677 0.54435,-4.17499 z" />
    <path
       id="path8905"
       style="fill:#ffffff;fill-rule:evenodd"
       sodipodi:type="star"
       sodipodi:sides="5"
       sodipodi:r1="6.1463628"
       sodipodi:r2="2.810354"
       sodipodi:arg1="-2.9229237"
       sodipodi:arg2="-2.2946052"
       transform="matrix(0.91782693,0.08936923,-0.07520632,1.0906005,-152.765,-148.43703)"
       inkscape:randomized="0"
       sodipodi:cy="148"
       sodipodi:cx="106.33333"
       inkscape:rounded="0"
       inkscape:flatsided="false"
       d="m 100.33333,146.66667 4.13886,-0.77244 1.27511,-4.01259 2.01361,3.69759 4.21023,-0.0273 -2.89438,3.05767 1.32696,3.99575 -3.80244,-1.80785 -3.39013,2.49677 0.54435,-4.17499 z" />
    <path
       id="path8907"
       style="fill:#ffffff;fill-rule:evenodd"
       sodipodi:type="star"
       sodipodi:sides="5"
       sodipodi:r1="6.1463628"
       sodipodi:r2="2.810354"
       sodipodi:arg1="-2.9229237"
       sodipodi:arg2="-2.2946052"
       transform="matrix(0.91782693,0.08936923,-0.07520632,1.0906005,-152.765,-127.57285)"
       inkscape:randomized="0"
       sodipodi:cy="148"
       sodipodi:cx="106.33333"
       inkscape:rounded="0"
       inkscape:flatsided="false"
       d="m 100.33333,146.66667 4.13886,-0.77244 1.27511,-4.01259 2.01361,3.69759 4.21023,-0.0273 -2.89438,3.05767 1.32696,3.99575 -3.80244,-1.80785 -3.39013,2.49677 0.54435,-4.17499 z" />
    <path
       id="path8909"
       style="fill:#ffffff;fill-rule:evenodd"
       sodipodi:type="star"
       sodipodi:sides="5"
       sodipodi:r1="6.1463628"
       sodipodi:r2="2.810354"
       sodipodi:arg1="-2.9229237"
       sodipodi:arg2="-2.2946052"
       transform="matrix(0.91782693,0.08936923,-0.07520632,1.0906005,-119.5069,-117.63753)"
       inkscape:randomized="0"
       sodipodi:cy="148"
       sodipodi:cx="106.33333"
       inkscape:rounded="0"
       inkscape:flatsided="false"
       d="m 100.33333,146.66667 4.13886,-0.77244 1.27511,-4.01259 2.01361,3.69759 4.21023,-0.0273 -2.89438,3.05767 1.32696,3.99575 -3.80244,-1.80785 -3.39013,2.49677 0.54435,-4.17499 z" />
    <path
       id="path8911"
       style="fill:#ffffff;fill-rule:evenodd"
       sodipodi:type="star"
       sodipodi:sides="5"
       sodipodi:r1="6.1463628"
       sodipodi:r2="2.810354"
       sodipodi:arg1="-2.9229237"
       sodipodi:arg2="-2.2946052"
       transform="matrix(0.91782693,0.08936923,-0.07520632,1.0906005,-142.2622,-117.63753)"
       inkscape:randomized="0"
       sodipodi:cy="148"
       sodipodi:cx="106.33333"
       inkscape:rounded="0"
       inkscape:flatsided="false"
       d="m 100.33333,146.66667 4.13886,-0.77244 1.27511,-4.01259 2.01361,3.69759 4.21023,-0.0273 -2.89438,3.05767 1.32696,3.99575 -3.80244,-1.80785 -3.39013,2.49677 0.54435,-4.17499 z" />
    <path
       id="path8913"
       style="fill:#ffffff;fill-rule:evenodd"
       sodipodi:type="star"
       sodipodi:sides="5"
       sodipodi:r1="6.1463628"
       sodipodi:r2="2.810354"
       sodipodi:arg1="-2.9229237"
       sodipodi:arg2="-2.2946052"
       transform="matrix(0.91782693,0.08936923,-0.07520632,1.0906005,-142.2622,-159.36588)"
       inkscape:randomized="0"
       sodipodi:cy="148"
       sodipodi:cx="106.33333"
       inkscape:rounded="0"
       inkscape:flatsided="false"
       d="m 100.33333,146.66667 4.13886,-0.77244 1.27511,-4.01259 2.01361,3.69759 4.21023,-0.0273 -2.89438,3.05767 1.32696,3.99575 -3.80244,-1.80785 -3.39013,2.49677 0.54435,-4.17499 z" />
    <path
       id="path8915"
       style="fill:#ffffff;fill-rule:evenodd"
       sodipodi:type="star"
       sodipodi:sides="5"
       sodipodi:r1="6.1463628"
       sodipodi:r2="2.810354"
       sodipodi:arg1="-2.9229237"
       sodipodi:arg2="-2.2946052"
       transform="matrix(0.91782693,0.08936923,-0.07520632,1.0906005,-142.2622,-138.5017)"
       inkscape:randomized="0"
       sodipodi:cy="148"
       sodipodi:cx="106.33333"
       inkscape:rounded="0"
       inkscape:flatsided="false"
       d="m 100.33333,146.66667 4.13886,-0.77244 1.27511,-4.01259 2.01361,3.69759 4.21023,-0.0273 -2.89438,3.05767 1.32696,3.99575 -3.80244,-1.80785 -3.39013,2.49677 0.54435,-4.17499 z" />
    <path
       id="path8917"
       style="fill:#ffffff;fill-rule:evenodd"
       sodipodi:type="star"
       sodipodi:sides="5"
       sodipodi:r1="6.1463628"
       sodipodi:r2="2.810354"
       sodipodi:arg1="-2.9229237"
       sodipodi:arg2="-2.2946052"
       transform="matrix(0.91782693,0.08936923,-0.07520632,1.0906005,-119.5069,-159.36588)"
       inkscape:randomized="0"
       sodipodi:cy="148"
       sodipodi:cx="106.33333"
       inkscape:rounded="0"
       inkscape:flatsided="false"
       d="m 100.33333,146.66667 4.13886,-0.77244 1.27511,-4.01259 2.01361,3.69759 4.21023,-0.0273 -2.89438,3.05767 1.32696,3.99575 -3.80244,-1.80785 -3.39013,2.49677 0.54435,-4.17499 z" />
    <path
       id="path8919"
       style="fill:#ffffff;fill-rule:evenodd"
       sodipodi:type="star"
       sodipodi:sides="5"
       sodipodi:r1="6.1463628"
       sodipodi:r2="2.810354"
       sodipodi:arg1="-2.9229237"
       sodipodi:arg2="-2.2946052"
       transform="matrix(0.91782693,0.08936923,-0.07520632,1.0906005,-130.8846,-148.43703)"
       inkscape:randomized="0"
       sodipodi:cy="148"
       sodipodi:cx="106.33333"
       inkscape:rounded="0"
       inkscape:flatsided="false"
       d="m 100.33333,146.66667 4.13886,-0.77244 1.27511,-4.01259 2.01361,3.69759 4.21023,-0.0273 -2.89438,3.05767 1.32696,3.99575 -3.80244,-1.80785 -3.39013,2.49677 0.54435,-4.17499 z" />
    <path
       id="path8921"
       style="fill:#ffffff;fill-rule:evenodd"
       sodipodi:type="star"
       sodipodi:sides="5"
       sodipodi:r1="6.1463628"
       sodipodi:r2="2.810354"
       sodipodi:arg1="-2.9229237"
       sodipodi:arg2="-2.2946052"
       transform="matrix(0.91782693,0.08936923,-0.07520632,1.0906005,-119.5069,-138.5017)"
       inkscape:randomized="0"
       sodipodi:cy="148"
       sodipodi:cx="106.33333"
       inkscape:rounded="0"
       inkscape:flatsided="false"
       d="m 100.33333,146.66667 4.13886,-0.77244 1.27511,-4.01259 2.01361,3.69759 4.21023,-0.0273 -2.89438,3.05767 1.32696,3.99575 -3.80244,-1.80785 -3.39013,2.49677 0.54435,-4.17499 z" />
    <path
       id="path8923"
       style="fill:#ffffff;fill-rule:evenodd"
       sodipodi:type="star"
       sodipodi:sides="5"
       sodipodi:r1="6.1463628"
       sodipodi:r2="2.810354"
       sodipodi:arg1="-2.9229237"
       sodipodi:arg2="-2.2946052"
       transform="matrix(0.91782693,0.08936923,-0.07520632,1.0906005,-130.8846,-127.57285)"
       inkscape:randomized="0"
       sodipodi:cy="148"
       sodipodi:cx="106.33333"
       inkscape:rounded="0"
       inkscape:flatsided="false"
       d="m 100.33333,146.66667 4.13886,-0.77244 1.27511,-4.01259 2.01361,3.69759 4.21023,-0.0273 -2.89438,3.05767 1.32696,3.99575 -3.80244,-1.80785 -3.39013,2.49677 0.54435,-4.17499 z" />
  </g>
  <g
     id="layer7"
     inkscape:label="uk white background"
     inkscape:groupmode="layer"
     transform="translate(0.5,-0.5)">
    <path
       id="path3835"
       sodipodi:nodetypes="cccc"
       style="fill:#ffffff;stroke-width:0.932491"
       inkscape:connector-curvature="0"
       d="M -155.5534,199.16023 177.9258,1.8347512 177.1469,199.60731 Z" />
  </g>
  <g
     id="layer8"
     inkscape:label="UK blue"
     inkscape:groupmode="layer"
     transform="translate(0.5,-0.5)">
    <path
       id="path3839"
       sodipodi:nodetypes="ccccc"
       style="fill:#00247d;stroke-width:0.932491"
       inkscape:connector-curvature="0"
       d="m 37.875,198.91184 -0.2797,-72.16921 138.8512,0.15784 0.1967,71.85326 z" />
    <path
       id="path3843"
       sodipodi:nodetypes="cccc"
       style="fill:#00247d;stroke-width:0.932491"
       inkscape:connector-curvature="0"
       d="M 176.5511,1.3928279 63.6848,69.249104 h 112.665 z" />
    <path
       id="path3845"
       sodipodi:nodetypes="ccccc"
       style="fill:#00247d;stroke-width:0.932491"
       inkscape:connector-curvature="0"
       d="m -155.1601,198.93171 123.8764,-73.2134 17.3037,0.22321 -0.3933,73.21341 z" />
  </g>
  <g
     id="layer9"
     inkscape:label="UK white n red stripes"
     inkscape:groupmode="layer"
     transform="translate(0.5,-0.5)">
    <path
       id="path3847"
       sodipodi:nodetypes="ccccccc"
       style="fill:#ffffff;stroke-width:0.932491"
       inkscape:connector-curvature="0"
       d="m 177.2863,179.04119 -0.3596,19.41164 -28.9929,2.04717 -113.794,-67.76189 1.298,-9.45366 50.4713,1.56253 z" />
    <path
       id="path3855"
       sodipodi:nodetypes="ccccc"
       style="fill:#ffffff;stroke-width:0.932491"
       inkscape:connector-curvature="0"
       d="M 177.5314,0.5 60.7353,71.034837 96.9154,71.927685 176.9432,23.713547 Z" />
    <path
       id="path3859"
       sodipodi:nodetypes="cccccc"
       style="fill:#ffffff;stroke-width:0.932491"
       inkscape:connector-curvature="0"
       d="m -155.5534,198.26604 130.0467,-75.85619 13.331,0.57717 0.048,14.40325 -102.075,61.32082 z" />
    <path
       id="path4355"
       sodipodi:nodetypes="cccccc"
       style="fill:#cf142b;stroke-width:0.932491"
       inkscape:connector-curvature="0"
       d="m -155.75,198.49456 128.27,-75.04151 13.5,0.0541 -0.3933,7.79665 -113.2689,67.41117 z" />
    <path
       id="path4357"
       sodipodi:nodetypes="ccccc"
       style="fill:#cf142b;stroke-width:0.932491"
       inkscape:connector-curvature="0"
       d="m 53.2698,124.60555 25.1683,0.89285 98.3117,59.82059 -0.3932,12.94672 z" />
  </g>
  <g
     id="layer3"
     inkscape:label="UK"
     inkscape:groupmode="layer"
     transform="translate(0.5,-0.5)">
    <path
       id="path3058"
       sodipodi:nodetypes="ccccc"
       style="fill:#cf142b;stroke-width:0.932491"
       inkscape:connector-curvature="0"
       d="M 176.5161,115.91214 -15.0574,115.68893 48.4658,78.754368 176.5433,79.04296 Z" />
    <path
       id="path3060"
       d="m 27.9414,198.25611 0.3933,-106.834542 -33.1353,19.018202 0.068,88.22866 z"
       sodipodi:nodetypes="ccccc"
       style="fill:#cf142b;stroke-width:0.932491"
       inkscape:connector-curvature="0" />
  </g>
  <g
     id="layer1"
     inkscape:label="bg_border"
     inkscape:groupmode="layer"
     transform="translate(0.5,-0.5)" />
  <metadata
     id="metadata329">
    <rdf:RDF>
      <cc:Work>
        <dc:format>image/svg+xml</dc:format>
        <dc:type
           rdf:resource="http://purl.org/dc/dcmitype/StillImage" />
        <cc:license
           rdf:resource="http://creativecommons.org/publicdomain/zero/1.0/" />
        <dc:publisher>
          <cc:Agent
             rdf:about="http://openclipart.org/">
            <dc:title>Openclipart</dc:title>
          </cc:Agent>
        </dc:publisher>
        <dc:title>US/UK flag</dc:title>
        <dc:date>2012-02-12T12:07:18</dc:date>
        <dc:description>English language flag.</dc:description>
        <dc:source>https://openclipart.org/detail/168121/usuk-flag-by-klainen</dc:source>
        <dc:creator>
          <cc:Agent>
            <dc:title>klainen</dc:title>
          </cc:Agent>
        </dc:creator>
        <dc:subject>
          <rdf:Bag>
            <rdf:li>English</rdf:li>
            <rdf:li>English language flag</rdf:li>
            <rdf:li>UK</rdf:li>
            <rdf:li>US</rdf:li>
            <rdf:li>flag</rdf:li>
          </rdf:Bag>
        </dc:subject>
      </cc:Work>
      <cc:License
         rdf:about="http://creativecommons.org/publicdomain/zero/1.0/">
        <cc:permits
           rdf:resource="http://creativecommons.org/ns#Reproduction" />
        <cc:permits
           rdf:resource="http://creativecommons.org/ns#Distribution" />
        <cc:permits
           rdf:resource="http://creativecommons.org/ns#DerivativeWorks" />
      </cc:License>
    </rdf:RDF>
  </metadata>
</svg>
