<svg xmlns="http://www.w3.org/2000/svg" id="canvas" viewBox="296.999 293.388 1231.441 500.817">
    <path
        d="M 330.13,332.33 C 329.80 333.56, 330.10 334.06, 330.60 338.08 C 331.09 342.10, 331.87 344.46, 332.61 352.43 C 333.34 360.41, 333.75 365.63, 334.28 377.96 C 334.80 390.29, 334.91 397.95, 335.24 414.09 C 335.57 430.23, 335.76 440.16, 335.92 458.64 C 336.07 477.13, 336.03 487.71, 336.02 506.51 C 336.00 525.31, 335.78 535.94, 335.84 552.63 C 335.90 569.33, 336.08 577.86, 336.31 589.98 C 336.54 602.11, 336.65 606.36, 337.01 613.25 C 337.37 620.15, 337.62 621.82, 338.10 624.46 C 338.58 627.10, 339.03 626.09, 339.40 626.47 C 339.77 626.84, 339.76 626.81, 339.96 626.35 C 340.16 625.89, 340.62 626.80, 340.40 624.16 C 340.18 621.52, 339.42 619.97, 338.87 613.13 C 338.33 606.29, 338.05 602.05, 337.67 589.95 C 337.28 577.85, 337.09 569.31, 336.97 552.63 C 336.85 535.94, 337.06 525.31, 337.08 506.51 C 337.09 487.71, 337.14 477.13, 337.04 458.64 C 336.94 440.15, 336.77 430.22, 336.57 414.07 C 336.37 397.92, 336.33 390.26, 336.05 377.90 C 335.76 365.54, 335.55 360.31, 335.15 352.25 C 334.75 344.20, 334.62 341.69, 334.03 337.62 C 333.45 333.56, 333.01 332.97, 332.23 331.91 C 331.45 330.86, 330.46 331.10, 330.13 332.33"
        style="fill:#ffffff;stroke:#ffffff;stroke-width:9.90359;stroke-dasharray:none" />
    <path
        d="M 302.55,333.26 C 304.04 331.85, 304.70 328.60, 307.52 324.85 C 310.34 321.09, 311.80 318.56, 316.64 314.49 C 321.49 310.41, 324.63 307.52, 331.73 304.46 C 338.84 301.40, 343.22 300.23, 352.15 299.20 C 361.09 298.17, 366.62 298.14, 376.41 299.30 C 386.21 300.45, 391.77 301.45, 401.11 304.97 C 410.46 308.49, 415.74 310.93, 423.14 316.89 C 430.53 322.86, 434.15 326.69, 438.09 334.81 C 442.02 342.93, 443.27 347.69, 442.83 357.49 C 442.38 367.30, 440.97 373.09, 435.87 383.84 C 430.77 394.59, 426.49 400.70, 417.33 411.23 C 408.18 421.77, 401.70 427.46, 390.10 436.53 C 378.50 445.60, 371.05 450.05, 359.33 456.58 C 347.60 463.11, 340.93 465.35, 331.45 469.16 C 321.97 472.98, 317.36 474.33, 311.93 475.66 C 306.51 476.99, 305.16 476.63, 304.33 475.81 C 303.50 474.99, 305.28 473.58, 307.78 471.54 C 310.29 469.50, 313.29 467.97, 316.86 465.60 C 320.43 463.24, 324.23 461.51, 325.62 459.72 C 327.01 457.92, 326.09 456.27, 323.81 456.64 C 321.52 457.01, 317.98 459.12, 314.21 461.57 C 310.44 464.02, 307.18 465.82, 304.94 468.91 C 302.70 471.99, 301.50 475.23, 302.99 477.01 C 304.49 478.78, 306.60 479.03, 312.42 477.77 C 318.24 476.52, 322.57 474.71, 332.09 470.71 C 341.61 466.72, 348.25 464.44, 360.02 457.81 C 371.79 451.19, 379.25 446.73, 390.93 437.60 C 402.61 428.47, 409.13 422.78, 418.40 412.16 C 427.67 401.54, 432.05 395.42, 437.27 384.51 C 442.49 373.59, 444.02 367.66, 444.51 357.57 C 444.99 347.48, 443.74 342.46, 439.69 334.04 C 435.65 325.62, 431.87 321.63, 424.29 315.47 C 416.70 309.31, 411.30 306.85, 401.77 303.23 C 392.25 299.61, 386.62 298.60, 376.65 297.36 C 366.67 296.13, 361.09 296.11, 351.92 297.06 C 342.74 298.01, 338.20 299.10, 330.76 302.12 C 323.32 305.14, 319.92 308.00, 314.72 312.14 C 309.53 316.28, 307.72 318.86, 304.79 322.81 C 301.86 326.76, 300.53 329.81, 300.08 331.90 C 299.64 333.99, 301.06 334.67, 302.55 333.26"
        style="fill:#ffffff;stroke:#ffffff;stroke-width:9.90359;stroke-dasharray:none" />
    <path
        d="M 453.08,469.30 C 452.08 468.62, 450.83 467.80, 448.29 468.32 C 445.74 468.85, 444.06 469.51, 440.34 471.94 C 436.62 474.37, 433.98 475.80, 429.69 480.48 C 425.39 485.15, 423.08 488.26, 418.85 495.31 C 414.63 502.36, 412.22 507.14, 408.55 515.74 C 404.89 524.33, 402.96 529.67, 400.53 538.27 C 398.11 546.88, 397.07 551.80, 396.42 558.75 C 395.77 565.70, 395.68 569.12, 397.27 573.01 C 398.87 576.90, 400.98 578.45, 404.39 578.20 C 407.80 577.95, 410.07 576.16, 414.34 571.75 C 418.61 567.34, 421.02 563.61, 425.76 556.15 C 430.49 548.70, 433.21 543.36, 438.01 534.49 C 442.81 525.62, 445.52 520.03, 449.76 511.81 C 453.99 503.59, 456.29 498.95, 459.18 493.39 C 462.07 487.83, 463.38 485.56, 464.21 484.01 C 465.04 482.46, 463.78 482.66, 463.31 485.62 C 462.84 488.59, 462.53 492.05, 461.85 498.85 C 461.16 505.64, 460.25 510.96, 459.89 519.59 C 459.52 528.22, 459.33 533.82, 460.02 542.00 C 460.71 550.18, 461.24 554.60, 463.34 560.50 C 465.44 566.40, 466.89 569.07, 470.53 571.50 C 474.17 573.93, 476.88 574.25, 481.55 572.64 C 486.21 571.04, 488.92 568.82, 493.86 563.47 C 498.80 558.11, 501.50 553.76, 506.25 545.87 C 511.00 537.98, 513.59 532.69, 517.59 524.00 C 521.60 515.30, 523.53 509.89, 526.27 502.39 C 529.01 494.89, 530.38 490.71, 531.31 486.50 C 532.25 482.29, 531.46 480.79, 530.93 481.33 C 530.40 481.88, 529.39 483.81, 528.67 489.22 C 527.94 494.63, 527.35 499.48, 527.29 508.37 C 527.24 517.25, 527.37 523.73, 528.37 533.64 C 529.38 543.54, 530.15 549.38, 532.31 557.88 C 534.46 566.39, 535.77 570.63, 539.14 576.17 C 542.50 581.71, 544.69 584.07, 549.13 585.58 C 553.58 587.10, 556.37 586.60, 561.38 583.77 C 566.39 580.94, 569.23 577.92, 574.19 571.43 C 579.15 564.95, 581.97 560.15, 586.19 551.35 C 590.42 542.55, 592.50 536.71, 595.31 527.44 C 598.12 518.18, 599.12 512.90, 600.25 505.03 C 601.38 497.16, 601.31 493.60, 600.97 488.08 C 600.62 482.56, 599.99 480.12, 598.53 477.42 C 597.07 474.73, 594.81 474.95, 593.66 474.62 C 592.51 474.29, 592.39 474.92, 592.77 475.77 C 593.16 476.62, 594.50 476.36, 595.58 478.87 C 596.66 481.37, 597.69 483.13, 598.17 488.30 C 598.65 493.47, 598.97 497.02, 597.99 504.72 C 597.01 512.43, 596.03 517.70, 593.27 526.82 C 590.50 535.95, 588.38 541.75, 584.17 550.37 C 579.96 558.98, 577.04 563.69, 572.21 569.91 C 567.38 576.12, 564.48 578.81, 560.03 581.44 C 555.59 584.08, 553.76 584.39, 549.99 583.08 C 546.23 581.78, 544.31 580.07, 541.21 574.92 C 538.10 569.77, 536.57 565.64, 534.47 557.34 C 532.37 549.04, 531.59 543.20, 530.70 533.41 C 529.82 523.63, 529.84 517.19, 530.04 508.41 C 530.24 499.63, 531.37 494.94, 531.69 489.51 C 532.01 484.09, 532.30 482.04, 531.66 481.28 C 531.03 480.51, 530.08 481.61, 528.53 485.67 C 526.99 489.72, 526.53 494.08, 523.93 501.56 C 521.34 509.04, 519.50 514.45, 515.56 523.06 C 511.61 531.68, 508.93 536.91, 504.19 544.62 C 499.46 552.33, 496.59 556.56, 491.86 561.61 C 487.13 566.67, 484.49 568.38, 480.55 569.88 C 476.61 571.38, 475.10 571.15, 472.17 569.10 C 469.23 567.04, 467.79 565.07, 465.88 559.60 C 463.96 554.14, 463.21 549.76, 462.58 541.79 C 461.96 533.82, 462.28 528.25, 462.77 519.73 C 463.26 511.21, 464.27 506.01, 465.03 499.18 C 465.79 492.36, 467.06 488.96, 466.58 485.62 C 466.11 482.28, 464.60 481.18, 462.65 482.49 C 460.70 483.80, 459.80 486.50, 456.83 492.16 C 453.85 497.83, 451.93 502.55, 447.78 510.80 C 443.62 519.05, 440.89 524.63, 436.05 533.42 C 431.22 542.21, 428.36 547.50, 423.59 554.75 C 418.82 562.00, 416.11 565.61, 412.19 569.67 C 408.28 573.74, 406.43 574.60, 404.01 575.07 C 401.58 575.53, 401.06 575.21, 400.06 571.99 C 399.05 568.77, 398.44 565.59, 398.97 558.97 C 399.51 552.35, 400.39 547.35, 402.72 538.88 C 405.06 530.42, 406.98 525.08, 410.65 516.64 C 414.33 508.20, 416.79 503.44, 421.08 496.69 C 425.37 489.93, 427.78 486.99, 432.11 482.85 C 436.45 478.72, 439.22 477.89, 442.75 476.00 C 446.29 474.10, 447.68 474.23, 449.79 473.38 C 451.89 472.52, 452.62 472.54, 453.27 471.73 C 453.93 470.91, 454.07 469.98, 453.08 469.30"
        style="fill:#ffffff;stroke:#ffffff;stroke-width:9.90359;stroke-dasharray:none" />
    <path
        d="M 639.46,479.05 C 638.92 478.82, 638.88 478.04, 637.64 478.76 C 636.41 479.47, 635.10 479.66, 633.29 482.62 C 631.48 485.57, 630.61 487.82, 628.59 493.53 C 626.57 499.24, 624.84 503.40, 623.18 511.18 C 621.52 518.97, 620.67 524.02, 620.29 532.45 C 619.91 540.87, 619.86 546.03, 621.27 553.30 C 622.67 560.57, 623.97 564.34, 627.33 568.80 C 630.69 573.27, 633.38 574.97, 638.09 575.64 C 642.80 576.30, 646.00 575.35, 650.88 572.12 C 655.77 568.90, 658.66 565.75, 662.52 559.51 C 666.38 553.28, 668.08 548.99, 670.16 540.95 C 672.24 532.91, 672.97 527.77, 672.93 519.32 C 672.89 510.88, 672.11 505.92, 669.97 498.72 C 667.82 491.53, 665.90 488.01, 662.20 483.33 C 658.51 478.66, 655.80 476.77, 651.51 475.36 C 647.22 473.96, 644.11 474.55, 640.75 476.33 C 637.39 478.10, 635.71 480.70, 634.71 484.24 C 633.72 487.78, 633.84 490.67, 635.76 494.04 C 637.68 497.41, 639.77 499.37, 644.32 501.08 C 648.86 502.80, 652.14 503.36, 658.47 502.62 C 664.79 501.88, 668.55 500.92, 675.95 497.39 C 683.35 493.86, 687.60 491.45, 695.46 484.96 C 703.33 478.48, 707.69 474.12, 715.28 464.97 C 722.86 455.82, 727.09 450.03, 733.38 439.21 C 739.67 428.39, 742.39 421.61, 746.74 410.87 C 751.09 400.13, 752.94 394.37, 755.15 385.52 C 757.37 376.68, 757.97 372.35, 757.80 366.64 C 757.62 360.94, 756.71 358.31, 754.28 357.00 C 751.85 355.68, 749.45 356.38, 745.65 360.07 C 741.85 363.76, 739.59 366.99, 735.29 375.46 C 730.99 383.93, 728.16 389.80, 724.14 402.40 C 720.11 415.01, 717.79 423.19, 715.16 438.50 C 712.53 453.81, 711.65 462.92, 710.99 478.95 C 710.33 494.99, 710.36 503.96, 711.88 518.68 C 713.39 533.40, 714.73 540.83, 718.56 552.55 C 722.38 564.26, 725.06 569.79, 730.99 577.24 C 736.91 584.69, 740.56 587.29, 748.19 589.81 C 755.81 592.33, 760.63 592.12, 769.11 589.84 C 777.60 587.56, 782.83 584.03, 790.61 578.42 C 798.40 572.80, 802.29 567.83, 808.03 561.77 C 813.78 555.70, 817.41 551.09, 819.35 548.09 C 821.30 545.10, 820.34 544.34, 817.77 546.78 C 815.20 549.23, 812.20 554.34, 806.52 560.33 C 800.84 566.32, 796.96 571.18, 789.38 576.71 C 781.79 582.24, 776.73 585.70, 768.60 587.98 C 760.47 590.26, 756.01 590.47, 748.74 588.13 C 741.46 585.78, 737.99 583.46, 732.22 576.26 C 726.45 569.06, 723.69 563.66, 719.87 552.12 C 716.05 540.57, 714.65 533.17, 713.13 518.55 C 711.60 503.93, 711.56 494.97, 712.23 479.01 C 712.91 463.04, 713.80 453.95, 716.50 438.74 C 719.21 423.52, 721.60 415.38, 725.75 402.93 C 729.90 390.48, 732.89 384.68, 737.26 376.49 C 741.63 368.29, 744.42 365.46, 747.60 361.96 C 750.78 358.46, 751.60 358.04, 753.15 358.99 C 754.71 359.93, 755.37 361.47, 755.39 366.69 C 755.42 371.90, 755.33 376.36, 753.29 385.07 C 751.25 393.79, 749.46 399.59, 745.21 410.25 C 740.95 420.92, 738.24 427.68, 731.99 438.40 C 725.75 449.13, 721.52 454.87, 713.96 463.87 C 706.41 472.87, 702.02 477.17, 694.21 483.42 C 686.41 489.68, 682.13 491.95, 674.92 495.16 C 667.71 498.38, 663.99 499.05, 658.16 499.51 C 652.33 499.96, 649.44 498.98, 645.76 497.43 C 642.09 495.89, 641.09 494.18, 639.78 491.79 C 638.48 489.39, 638.66 487.84, 639.25 485.46 C 639.85 483.08, 640.51 481.28, 642.76 479.89 C 645.01 478.51, 647.05 477.51, 650.50 478.55 C 653.96 479.59, 656.61 480.91, 660.03 485.08 C 663.45 489.26, 665.49 492.59, 667.60 499.44 C 669.71 506.29, 670.53 511.16, 670.56 519.33 C 670.60 527.51, 669.83 532.57, 667.76 540.31 C 665.68 548.06, 663.89 552.18, 660.18 558.06 C 656.48 563.93, 653.58 566.73, 649.24 569.67 C 644.90 572.61, 642.42 573.25, 638.48 572.75 C 634.54 572.25, 632.47 571.15, 629.53 567.16 C 626.59 563.17, 625.12 559.73, 623.78 552.82 C 622.45 545.90, 622.41 540.77, 622.86 532.58 C 623.31 524.38, 624.16 519.35, 626.03 511.84 C 627.91 504.33, 629.74 500.23, 632.23 495.03 C 634.71 489.84, 636.72 488.56, 638.46 485.87 C 640.20 483.17, 640.55 482.74, 640.93 481.55 C 641.31 480.35, 640.66 480.40, 640.37 479.90 C 640.08 479.40, 640.01 479.28, 639.46 479.05"
        style="fill:#ffffff;stroke:#ffffff;stroke-width:9.90359;stroke-dasharray:none" />
    <path
        d="M 936.67,367.16 C 936.47 368.30, 937.02 368.61, 937.69 372.12 C 938.36 375.63, 939.15 377.65, 940.02 384.70 C 940.89 391.76, 941.68 396.33, 942.05 407.39 C 942.42 418.45, 942.20 425.38, 941.86 440.01 C 941.53 454.65, 941.17 463.86, 940.37 480.56 C 939.57 497.26, 938.76 507.02, 937.88 523.49 C 937.00 539.96, 936.54 549.10, 935.99 562.91 C 935.43 576.71, 935.09 583.58, 935.12 592.51 C 935.15 601.44, 934.98 605.10, 936.12 607.55 C 937.27 610.00, 939.18 609.32, 940.86 604.76 C 942.55 600.20, 943.22 594.00, 944.56 584.74 C 945.90 575.48, 946.64 567.99, 947.56 558.45 C 948.48 548.91, 949.22 541.35, 949.14 537.04 C 949.06 532.72, 947.98 532.64, 947.17 536.87 C 946.35 541.10, 946.11 548.70, 945.08 558.20 C 944.04 567.70, 943.30 575.19, 942.00 584.37 C 940.70 593.56, 939.40 599.61, 938.58 604.13 C 937.76 608.65, 938.25 609.32, 937.90 607.00 C 937.55 604.67, 936.95 601.31, 936.84 592.50 C 936.73 583.69, 936.88 576.74, 937.33 562.95 C 937.78 549.17, 938.23 540.02, 939.09 523.56 C 939.95 507.09, 940.78 497.32, 941.63 480.62 C 942.48 463.92, 942.86 454.71, 943.34 440.05 C 943.82 425.40, 944.11 418.48, 944.01 407.35 C 943.92 396.23, 943.35 391.64, 942.84 384.43 C 942.34 377.22, 942.31 374.93, 941.48 371.32 C 940.65 367.71, 939.65 367.21, 938.69 366.38 C 937.73 365.55, 936.87 366.01, 936.67 367.16"
        style="fill:#ffffff;stroke:#ffffff;stroke-width:9.90359;stroke-dasharray:none" />
    <path
        d="M 1005.87,387.69 C 1006.53 386.51, 1005.96 383.59, 1004.93 382.36 C 1003.90 381.12, 1001.76 379.70, 1000.73 381.52 C 999.70 383.35, 1000.17 384.48, 999.79 391.46 C 999.41 398.45, 999.36 404.18, 998.82 416.43 C 998.29 428.69, 997.91 436.68, 997.11 452.75 C 996.30 468.83, 995.79 478.92, 994.82 496.80 C 993.84 514.68, 993.20 525.55, 992.24 542.17 C 991.28 558.79, 990.78 567.61, 990.04 579.89 C 989.29 592.17, 988.58 598.82, 988.54 603.57 C 988.49 608.33, 989.26 608.37, 989.79 603.65 C 990.33 598.93, 990.49 592.24, 991.22 579.96 C 991.95 567.68, 992.48 558.86, 993.44 542.24 C 994.39 525.62, 994.99 514.75, 996.00 496.86 C 997.02 478.98, 997.55 468.90, 998.50 452.83 C 999.45 436.77, 999.91 428.77, 1000.75 416.54 C 1001.59 404.31, 1002.08 398.54, 1002.68 391.67 C 1003.28 384.79, 1004.04 383.85, 1003.76 382.17 C 1003.48 380.49, 1001.70 382.04, 1001.27 383.25 C 1000.84 384.46, 1000.70 387.33, 1001.62 388.22 C 1002.54 389.11, 1005.21 388.86, 1005.87 387.69"
        style="fill:#ffffff;stroke:#ffffff;stroke-width:9.90359;stroke-dasharray:none" />
    <path
        d="M 914.70,537.88 C 916.06 538.96, 917.87 539.95, 922.31 540.89 C 926.74 541.82, 929.87 542.55, 936.88 542.56 C 943.90 542.58, 948.48 542.37, 957.37 540.96 C 966.27 539.54, 971.73 538.34, 981.37 535.47 C 991.00 532.61, 996.22 530.58, 1005.55 526.64 C 1014.88 522.70, 1020.06 520.20, 1028.01 515.79 C 1035.96 511.38, 1039.79 509.00, 1045.32 504.61 C 1050.85 500.22, 1052.85 497.92, 1055.66 493.82 C 1058.46 489.73, 1059.59 487.50, 1059.33 484.16 C 1059.08 480.81, 1057.45 478.58, 1054.37 477.11 C 1051.30 475.64, 1048.47 475.48, 1043.95 476.80 C 1039.43 478.12, 1036.64 479.61, 1031.75 483.73 C 1026.86 487.86, 1023.93 490.90, 1019.52 497.43 C 1015.12 503.95, 1012.73 508.00, 1009.72 516.36 C 1006.72 524.73, 1005.36 530.15, 1004.48 539.25 C 1003.60 548.35, 1003.64 553.64, 1005.34 561.86 C 1007.05 570.09, 1008.86 574.34, 1013.02 580.37 C 1017.18 586.41, 1020.25 589.15, 1026.15 592.04 C 1032.06 594.93, 1035.62 595.45, 1042.55 594.82 C 1049.48 594.19, 1053.39 592.82, 1060.80 588.89 C 1068.22 584.95, 1072.36 581.77, 1079.61 575.14 C 1086.86 568.52, 1090.53 563.87, 1097.05 555.77 C 1103.56 547.67, 1106.79 542.63, 1112.18 534.65 C 1117.56 526.67, 1120.10 521.80, 1123.97 515.87 C 1127.84 509.93, 1129.68 507.25, 1131.53 504.99 C 1133.39 502.73, 1132.64 502.58, 1133.24 504.54 C 1133.85 506.51, 1133.97 508.48, 1134.57 514.80 C 1135.16 521.13, 1135.52 526.18, 1136.22 536.19 C 1136.93 546.21, 1137.21 552.53, 1138.09 564.88 C 1138.96 577.23, 1139.55 584.35, 1140.59 597.92 C 1141.63 611.50, 1142.44 619.52, 1143.28 632.77 C 1144.13 646.02, 1144.98 652.80, 1144.83 664.19 C 1144.68 675.57, 1144.25 681.09, 1142.54 689.69 C 1140.83 698.30, 1139.51 702.06, 1136.27 707.21 C 1133.04 712.37, 1130.87 713.86, 1126.35 715.48 C 1121.84 717.10, 1118.89 717.04, 1113.69 715.34 C 1108.50 713.63, 1105.27 711.87, 1100.37 706.98 C 1095.47 702.09, 1092.53 698.74, 1089.19 690.86 C 1085.85 682.98, 1084.10 678.03, 1083.66 667.59 C 1083.22 657.14, 1083.99 650.82, 1086.99 638.64 C 1089.99 626.46, 1092.78 619.55, 1098.64 606.70 C 1104.51 593.84, 1108.60 586.75, 1116.32 574.36 C 1124.03 561.98, 1128.86 555.46, 1137.22 544.77 C 1145.59 534.08, 1150.30 528.92, 1158.14 520.92 C 1165.98 512.91, 1170.02 509.20, 1176.42 504.72 C 1182.83 500.25, 1185.89 498.97, 1190.17 498.54 C 1194.44 498.11, 1195.61 499.06, 1197.81 502.57 C 1200.00 506.09, 1200.52 509.23, 1201.16 516.13 C 1201.80 523.04, 1201.45 528.25, 1201.00 537.11 C 1200.54 545.97, 1199.64 551.89, 1198.88 560.44 C 1198.12 568.99, 1197.35 573.71, 1197.20 579.88 C 1197.04 586.05, 1196.66 588.85, 1198.09 591.29 C 1199.52 593.72, 1201.56 594.14, 1204.36 592.06 C 1207.15 589.98, 1208.46 586.81, 1212.08 580.89 C 1215.69 574.98, 1218.09 570.12, 1222.42 562.47 C 1226.75 554.82, 1229.32 549.63, 1233.73 542.64 C 1238.14 535.65, 1240.77 531.85, 1244.47 527.53 C 1248.18 523.22, 1250.16 521.90, 1252.24 521.06 C 1254.33 520.23, 1253.97 520.63, 1254.90 523.35 C 1255.84 526.06, 1256.31 529.08, 1256.91 534.63 C 1257.51 540.17, 1257.43 544.46, 1257.92 551.09 C 1258.42 557.71, 1258.34 561.93, 1259.38 567.74 C 1260.43 573.55, 1260.86 576.68, 1263.15 580.14 C 1265.45 583.61, 1267.32 585.07, 1270.85 585.07 C 1274.37 585.07, 1276.56 583.73, 1280.77 580.13 C 1284.97 576.54, 1287.43 573.52, 1291.88 567.09 C 1296.33 560.65, 1298.77 556.03, 1303.00 547.97 C 1307.23 539.91, 1309.53 534.59, 1313.02 526.79 C 1316.52 518.98, 1318.41 514.32, 1320.45 508.96 C 1322.49 503.60, 1323.15 501.43, 1323.21 499.99 C 1323.26 498.55, 1321.58 498.99, 1320.73 501.76 C 1319.89 504.52, 1319.44 507.80, 1318.98 513.82 C 1318.52 519.83, 1317.85 524.70, 1318.44 531.84 C 1319.04 538.98, 1319.78 543.35, 1321.97 549.53 C 1324.16 555.71, 1325.67 558.83, 1329.39 562.75 C 1333.11 566.67, 1335.58 568.30, 1340.58 569.12 C 1345.58 569.95, 1348.80 569.51, 1354.40 566.87 C 1359.99 564.24, 1362.95 561.51, 1368.55 555.95 C 1374.14 550.38, 1377.19 546.21, 1382.38 539.05 C 1387.58 531.90, 1390.36 526.97, 1394.52 520.17 C 1398.69 513.37, 1400.88 509.23, 1403.21 505.05 C 1405.54 500.87, 1405.61 499.16, 1406.19 499.26 C 1406.77 499.36, 1406.05 500.46, 1406.12 505.55 C 1406.19 510.64, 1406.53 515.03, 1406.53 524.69 C 1406.52 534.36, 1406.36 540.67, 1406.11 553.87 C 1405.87 567.07, 1405.89 574.95, 1405.30 590.70 C 1404.72 606.44, 1404.44 615.50, 1403.19 632.61 C 1401.94 649.71, 1401.29 659.28, 1399.06 676.21 C 1396.83 693.15, 1395.35 702.12, 1392.03 717.27 C 1388.72 732.42, 1386.87 740.05, 1382.49 751.96 C 1378.11 763.86, 1375.11 769.56, 1370.13 776.78 C 1365.14 784.00, 1362.42 786.08, 1357.56 788.05 C 1352.71 790.03, 1350.47 789.18, 1345.86 786.66 C 1341.25 784.14, 1338.76 781.73, 1334.52 775.46 C 1330.27 769.19, 1327.46 764.49, 1324.64 755.30 C 1321.81 746.11, 1320.36 740.53, 1320.40 729.49 C 1320.44 718.44, 1320.98 712.33, 1324.85 700.08 C 1328.71 687.82, 1331.97 681.05, 1339.74 668.21 C 1347.52 655.37, 1352.83 648.44, 1363.72 635.89 C 1374.62 623.35, 1381.41 616.87, 1394.22 605.49 C 1407.03 594.12, 1414.41 588.76, 1427.77 579.00 C 1441.14 569.25, 1448.33 564.76, 1461.04 556.70 C 1473.75 548.64, 1480.99 544.61, 1491.32 538.72 C 1501.65 532.82, 1506.12 530.82, 1512.68 527.22 C 1519.24 523.63, 1522.00 522.35, 1524.12 520.75 C 1526.24 519.16, 1525.70 518.23, 1523.25 519.24 C 1520.81 520.26, 1518.44 522.18, 1511.91 525.83 C 1505.37 529.47, 1500.90 531.50, 1490.60 537.47 C 1480.29 543.44, 1473.09 547.55, 1460.39 555.68 C 1447.69 563.81, 1440.50 568.31, 1427.12 578.10 C 1413.73 587.90, 1406.33 593.26, 1393.48 604.66 C 1380.62 616.06, 1373.81 622.54, 1362.84 635.12 C 1351.87 647.70, 1346.52 654.64, 1338.65 667.55 C 1330.77 680.45, 1327.46 687.25, 1323.46 699.63 C 1319.47 712.02, 1318.85 718.22, 1318.69 729.47 C 1318.52 740.72, 1319.87 746.44, 1322.65 755.90 C 1325.43 765.36, 1328.15 770.21, 1332.58 776.77 C 1337.00 783.33, 1339.63 786.07, 1344.79 788.70 C 1349.94 791.33, 1352.99 792.13, 1358.33 789.93 C 1363.68 787.73, 1366.41 785.22, 1371.49 777.72 C 1376.58 770.21, 1379.42 764.46, 1383.75 752.42 C 1388.09 740.38, 1389.90 732.73, 1393.18 717.52 C 1396.46 702.31, 1397.93 693.32, 1400.17 676.36 C 1402.40 659.39, 1403.06 649.81, 1404.35 632.69 C 1405.64 615.57, 1405.93 606.50, 1406.61 590.75 C 1407.30 574.99, 1407.35 567.12, 1407.79 553.91 C 1408.22 540.71, 1408.56 534.42, 1408.79 524.72 C 1409.02 515.02, 1409.39 510.75, 1408.93 505.41 C 1408.46 500.07, 1408.11 498.42, 1406.46 498.03 C 1404.81 497.65, 1403.52 499.32, 1400.68 503.48 C 1397.85 507.64, 1396.34 511.99, 1392.29 518.82 C 1388.23 525.65, 1385.52 530.56, 1380.40 537.62 C 1375.29 544.68, 1372.17 548.76, 1366.72 554.10 C 1361.28 559.43, 1358.31 561.88, 1353.18 564.29 C 1348.05 566.70, 1345.39 566.87, 1341.07 566.15 C 1336.76 565.44, 1334.83 564.22, 1331.58 560.70 C 1328.34 557.18, 1326.78 554.37, 1324.85 548.55 C 1322.91 542.72, 1322.34 538.47, 1321.92 531.59 C 1321.50 524.70, 1322.26 520.01, 1322.75 514.12 C 1323.25 508.23, 1324.62 505.15, 1324.40 502.15 C 1324.18 499.16, 1322.99 498.01, 1321.65 499.15 C 1320.31 500.30, 1319.89 502.55, 1317.71 507.88 C 1315.54 513.21, 1314.14 518.00, 1310.76 525.79 C 1307.38 533.57, 1305.06 538.88, 1300.82 546.81 C 1296.58 554.75, 1294.00 559.29, 1289.56 565.45 C 1285.13 571.62, 1282.39 574.42, 1278.63 577.63 C 1274.87 580.84, 1273.25 581.37, 1270.77 581.50 C 1268.29 581.63, 1267.80 581.14, 1266.21 578.27 C 1264.62 575.40, 1263.74 572.63, 1262.80 567.14 C 1261.85 561.65, 1261.93 557.42, 1261.48 550.83 C 1261.03 544.25, 1261.21 540.01, 1260.53 534.22 C 1259.85 528.42, 1259.93 525.09, 1258.09 521.86 C 1256.25 518.63, 1254.48 517.30, 1251.33 518.07 C 1248.17 518.84, 1246.28 521.05, 1242.32 525.69 C 1238.36 530.33, 1236.01 534.18, 1231.54 541.26 C 1227.08 548.33, 1224.40 553.47, 1219.98 561.06 C 1215.55 568.66, 1212.99 573.53, 1209.42 579.25 C 1205.85 584.97, 1203.88 587.47, 1202.11 589.67 C 1200.34 591.86, 1200.99 592.18, 1200.57 590.24 C 1200.16 588.30, 1199.88 585.87, 1200.04 579.96 C 1200.21 574.04, 1200.68 569.20, 1201.38 560.65 C 1202.08 552.11, 1203.05 546.20, 1203.53 537.25 C 1204.01 528.29, 1204.51 523.11, 1203.80 515.88 C 1203.09 508.66, 1202.75 505.06, 1199.98 501.12 C 1197.21 497.19, 1194.89 495.81, 1189.96 496.22 C 1185.02 496.63, 1181.91 498.45, 1175.32 503.17 C 1168.74 507.89, 1164.87 511.69, 1157.03 519.84 C 1149.19 527.99, 1144.51 533.16, 1136.14 543.92 C 1127.77 554.69, 1122.94 561.22, 1115.19 573.66 C 1107.43 586.09, 1103.32 593.19, 1097.38 606.11 C 1091.44 619.04, 1088.59 625.96, 1085.48 638.27 C 1082.38 650.57, 1081.51 656.97, 1081.85 667.65 C 1082.19 678.34, 1083.85 683.47, 1087.19 691.69 C 1090.53 699.92, 1093.41 703.53, 1098.55 708.78 C 1103.68 714.02, 1107.12 716.11, 1112.86 717.92 C 1118.60 719.74, 1122.18 719.78, 1127.23 717.87 C 1132.29 715.95, 1134.70 713.93, 1138.12 708.36 C 1141.53 702.79, 1142.66 698.86, 1144.31 690.03 C 1145.96 681.20, 1146.30 675.68, 1146.39 664.20 C 1146.47 652.73, 1145.60 645.96, 1144.74 632.68 C 1143.88 619.40, 1143.07 611.40, 1142.08 597.81 C 1141.10 584.23, 1140.54 577.12, 1139.82 564.77 C 1139.11 552.42, 1138.99 546.10, 1138.51 536.06 C 1138.03 526.01, 1137.99 521.09, 1137.41 514.55 C 1136.84 508.00, 1137.22 505.65, 1135.64 503.32 C 1134.05 500.99, 1132.22 500.64, 1129.47 502.89 C 1126.73 505.14, 1125.70 508.42, 1121.90 514.55 C 1118.10 520.67, 1115.76 525.52, 1110.48 533.52 C 1105.21 541.52, 1101.98 546.53, 1095.53 554.55 C 1089.08 562.58, 1085.38 567.15, 1078.23 573.63 C 1071.07 580.10, 1066.94 583.15, 1059.76 586.91 C 1052.58 590.68, 1048.84 591.86, 1042.33 592.45 C 1035.82 593.04, 1032.69 592.55, 1027.20 589.88 C 1021.72 587.20, 1018.85 584.76, 1014.91 579.07 C 1010.96 573.38, 1009.13 569.34, 1007.48 561.42 C 1005.82 553.49, 1005.75 548.31, 1006.63 539.46 C 1007.51 530.60, 1008.87 525.26, 1011.88 517.15 C 1014.90 509.05, 1017.32 505.11, 1021.71 498.94 C 1026.10 492.77, 1029.17 489.96, 1033.84 486.30 C 1038.51 482.65, 1041.29 481.71, 1045.06 480.66 C 1048.83 479.60, 1050.59 480.29, 1052.69 481.04 C 1054.80 481.78, 1055.49 482.16, 1055.59 484.39 C 1055.69 486.62, 1055.53 488.50, 1053.18 492.18 C 1050.82 495.85, 1049.05 498.40, 1043.82 502.77 C 1038.59 507.13, 1034.82 509.59, 1027.01 514.00 C 1019.21 518.42, 1014.04 520.95, 1004.80 524.85 C 995.55 528.75, 990.35 530.77, 980.79 533.51 C 971.24 536.25, 965.79 537.35, 957.02 538.56 C 948.25 539.77, 943.74 539.80, 936.94 539.57 C 930.13 539.34, 927.30 538.23, 923.01 537.41 C 918.72 536.59, 917.14 535.38, 915.48 535.48 C 913.82 535.57, 913.33 536.80, 914.70 537.88"
        style="fill:#ffffff;stroke:#ffffff;stroke-width:9.90359;stroke-dasharray:none" />
</svg>