<svg width="23.497405450819826" height="23.49849058181678">
  <defs>
    <filter id="glow">
      <feGaussianBlur class="blur" result="coloredBlur" stdDeviation="4"></feGaussianBlur>
      <feMerge>
        <feMergeNode in="coloredBlur"></feMergeNode>
        <feMergeNode in="coloredBlur"></feMergeNode>
        <feMergeNode in="coloredBlur"></feMergeNode>
        <feMergeNode in="SourceGraphic"></feMergeNode>
        <!--!!! Border should not be cut -->
      </feMerge>
    </filter>
  </defs>
  <path style="stroke: rgb(255, 153, 18); stroke-width: 5px; fill: none; stroke-linecap: round; stroke-linejoin: round; filter: url(&quot;#glow&quot;);" d="
M 8.8,11.7
L 8.8,11.4
  8.8,11.2
  8.9,10.9
  9.0,10.6
  9.1,10.3
  9.3,10.1
  9.5,9.8
  9.7,9.6
  9.9,9.4
  10.1,9.2
  10.4,9.1
  10.7,9.0
  10.9,8.9
  11.2,8.8
  11.5,8.8
  11.8,8.8
  12.1,8.8
  12.4,8.8
  12.7,8.9
  13.0,9.0
  13.3,9.2
  13.5,9.3
  13.7,9.5
  14.0,9.7
  14.2,10.0
  14.3,10.2
  14.5,10.5
  14.6,10.7
  14.7,11.0
  14.7,11.3
  14.7,11.6
  14.7,11.9
  14.7,12.2
  14.7,12.5
  14.6,12.8
  14.4,13.1
  14.3,13.3
  14.1,13.6
  13.9,13.8
  13.7,14.0
  13.5,14.2
  13.2,14.4
  13.0,14.5
  12.7,14.6
  12.4,14.7
  12.1,14.7
  11.8,14.7
  11.5,14.7
  11.2,14.7
  10.9,14.6
  10.6,14.5
  10.3,14.4
  10.1,14.2
  9.8,14.1
  9.6,13.9
  9.4,13.6
  9.2,13.4
  9.1,13.1
  9.0,12.9
  8.9,12.6
  8.8,12.3
  8.8,12.0
"></path>
</svg>