<?xml version="1.0" encoding="UTF-8" standalone="no"?>
<svg
   viewBox="1785.5 -247.5 687 183"
   width="687"
   height="183"
   version="1.1"
   id="svg562"
   sodipodi:docname="logo.svg"
   inkscape:version="1.2.2 (732a01da63, 2022-12-09)"
   xmlns:inkscape="http://www.inkscape.org/namespaces/inkscape"
   xmlns:sodipodi="http://sodipodi.sourceforge.net/DTD/sodipodi-0.dtd"
   xmlns="http://www.w3.org/2000/svg"
   xmlns:svg="http://www.w3.org/2000/svg"
   xmlns:collboard="https://xmlns.collboard.com/">
  <defs
     id="defs566" />
  <sodipodi:namedview
     id="namedview564"
     pagecolor="#ffffff"
     bordercolor="#000000"
     borderopacity="0.25"
     inkscape:showpageshadow="2"
     inkscape:pageopacity="0.0"
     inkscape:pagecheckerboard="0"
     inkscape:deskcolor="#d1d1d1"
     showgrid="false"
     inkscape:zoom="0.62270685"
     inkscape:cx="578.9241"
     inkscape:cy="112.41245"
     inkscape:window-width="1920"
     inkscape:window-height="1017"
     inkscape:window-x="-8"
     inkscape:window-y="1072"
     inkscape:window-maximized="1"
     inkscape:current-layer="svg562" />
  <title
     id="title544">Collboard.com</title>
  <metadata
     collboard:import-with-module="@collboard/internal/html-native-import"
     id="metadata546" />
  <g
     id="g689"
     transform="translate(1785.7521,-225.21426)">
    <path
       d="m 26,47.9 c -2.1,0 -4.9,-2.4 -6.6,-3.7 C 6.3,34.5 11.2,9 27.3,4.6 c 22.5,-6.3 42.2,4.8 63.6,9 32.2,6.3 59.3,-1.9 85.5,-21.1"
       stroke="#ee2333"
       stroke-width="5"
       fill-opacity="null"
       stroke-opacity="null"
       stroke-linecap="round"
       stroke-linejoin="round"
       fill="none"
       class="collisions"
       id="path548" />
    <path
       d="m 12.1,107.1 c 0,8.8 -2,28.2 4.6,35.7 5.6,6.6 16.4,1.6 21.2,-3.5 23.2,-24.8 28.1,-62 33.7,-94 1.5,-8.4 8.2,-24.4 5.7,-33.7"
       stroke="#ee2333"
       stroke-width="5"
       fill-opacity="null"
       stroke-opacity="null"
       stroke-linecap="round"
       stroke-linejoin="round"
       fill="none"
       class="collisions"
       id="path550" />
    <path
       d="m 49.129626,50.326997 c 14.4,0 27.7,2 42.3,-0.6"
       stroke="#ee2333"
       stroke-width="5"
       fill-opacity="null"
       stroke-opacity="null"
       stroke-linecap="round"
       stroke-linejoin="round"
       fill="none"
       class="collisions"
       id="path552" />
    <path
       d="m 64.794421,131.9518 c -2.9,3.6 6.5,-6.9 8.9,-10.9 3.5,-5.8 5.1,-12.9 7.6,-19.1 0.3,-0.7 1.3,-2.600003 1.3,-1.9 0,3.2 2.1,9.9 6.3,9.9 4.8,0 10.1,-5.6 12.099999,-9.4 0.2,-0.4 0.4,-1.600003 0.2,-1.300003 -4.699999,5.800003 -7.699999,33.800003 4.3,34.300003 15.5,0.6 32.3,-15.6 41.7,-26.3 1.5,-1.7 6.4,-5.3 4.1,-5.3 -13.8,0 -31.5,39.2 -14.8,43.3 24.8,6.1 39.1,-30 17,-41.1 -14.4,-7.100003 -18.6,24.2 4.4,25.1 7.2,0.3 14.3,-2.4 19.6,-7.2 3.3,-3 13.5,-22.700003 18.1,-22 12.6,2 2.9,28.2 1.6,35 -0.3,1.4 -1.2,5.9 -0.6,4.5 4.9,-12.5 14.1,-26.3 22.5,-36.8 0.5,-0.6 0.4,1.5 0.5,2.3 0.8,10 -1.9,20.9 -3.5,30.8 -0.1,0.6 -0.6,2.4 -0.3,1.8 2.7,-4.9 14.5,-30.8 19.4,-31.6 3.4,-0.5 0.5,30.5 4.1,34.1 7.5,7.5 26.2,-3.2 32.6,-6"
       stroke="#ee2333"
       stroke-width="5"
       fill-opacity="null"
       stroke-opacity="null"
       stroke-linecap="round"
       stroke-linejoin="round"
       fill="none"
       class="collisions"
       id="path554" />
  </g>
  <path
     d="m 2161.4538,-198.15117 c -1.8,-2.3 -12.9,1.3 -13.2,1.4 -30.1,12.7 -57.3,54.7 -48.1,87.7 1.7,6.3 5,17.2 11.6,20.5 9.3,4.700001 23.3,-4.5 30,-9.8 17,-13.7 31,-32.5 39.7,-52.6 5.3,-11.9 15.8,-59.5 -12.8,-50.5"
     stroke="#ee2333"
     stroke-width="5"
     fill-opacity="null"
     stroke-opacity="null"
     stroke-linecap="round"
     stroke-linejoin="round"
     fill="none"
     class="collisions"
     id="path556" />
  <path
     d="m 2225.1781,-79.559192 c 8.9,-11 13.4,-29.799998 18.6,-42.499998 9.9,-24 18.9,-48.9 27.6,-73.3 1.7,-4.5 1.8,-16.5 4.7,-20.1 0.5,-0.7 0.5,1.6 0.4,2.4 -0.5,9.3 -0.6,4.3 -1.8,16.3 -2.9,30.4 -3.8,60.9 -6.7,91.4 -0.2,2.4 -1.2,9.799998 -1,7.299998 0.5,-5.899998 0.3,-12.899998 -1.3,-18.599998 -1.2,-4.5 -9.7,-8.6 -12.3,-2.9 -4.7,10.1 1.8,27.599998 11.8,32.199998 5.3,2.5 11.8,-1.2 16.3,-3.9 13.7,-8.3 27.3,-22.599998 33,-37.799998 1,-2.4 4,-7.8 1.3,-7.8 -3.7,0 -6.6,5.1 -8.5,7.2 -9.4,10.9 -20.4,23.6 -17.8,39.199998 1,5.6 3.1,10.2 8.9,11.7 12.4,3.4 23.9,-8.2 29.3,-18 7.5,-13.599998 8.1,-40.699998 -13.3,-42.099998 -8.8,-0.6 -20.7,9.7 -19.1,19.1 2.9,17.1 19.4,20.599998 33.4,14.1 15.3,-7 26.6,-20.4 37.1,-33"
     stroke="#ee2333"
     stroke-width="5"
     fill-opacity="null"
     stroke-opacity="null"
     stroke-linecap="round"
     stroke-linejoin="round"
     fill="none"
     class="collisions"
     id="path558" />
  <path
     d="m 2408.9267,-166.32291 c 11.9,-9.3 27.5,-34.8 36.8,-48.5 1.5,-2.1 4.9,-12.1 7.2,-13.1 1.4,-0.6 -0.6,2.8 -0.8,4.3 -1.5,10.1 -1.2,12.8 -1.9,25 -1.7,26.8 -2.8,53.6 -4,80.3 -0.6,12.6 -0.7,25.099997 -1.1,37.599997 -0.1,2.4 -3.2,7 -0.9,7"
     stroke="#ee2333"
     stroke-width="5"
     fill-opacity="null"
     stroke-opacity="null"
     stroke-linecap="round"
     stroke-linejoin="round"
     fill="none"
     class="collisions"
     id="path560" />
</svg>
