<svg xmlns="http://www.w3.org/2000/svg" id="canvas" viewBox="283.464 318.379 1404.447 243.864">
    <path
        d="M 373.34,348.07 C 372.08 349.06, 371.81 350.21, 370.84 353.79 C 369.87 357.37, 369.96 359.77, 368.49 365.98 C 367.02 372.18, 366.11 376.29, 363.49 384.82 C 360.87 393.36, 359.15 398.43, 355.38 408.67 C 351.62 418.91, 349.24 424.76, 344.68 436.00 C 340.11 447.25, 337.41 453.45, 332.56 464.88 C 327.72 476.31, 325.06 482.46, 320.45 493.15 C 315.84 503.84, 313.51 509.39, 309.53 518.33 C 305.55 527.28, 303.67 531.56, 300.54 537.88 C 297.41 544.20, 295.81 546.42, 293.85 549.93 C 291.90 553.45, 291.27 554.06, 290.78 555.45 C 290.30 556.85, 290.80 556.87, 291.42 556.91 C 292.03 556.95, 293.46 556.32, 293.86 555.66 C 294.26 555.00, 294.77 553.82, 293.42 553.60 C 292.07 553.37, 288.33 553.81, 287.12 554.53 C 285.91 555.25, 286.60 556.32, 287.38 557.22 C 288.15 558.12, 289.53 558.81, 291.00 559.02 C 292.46 559.23, 293.23 559.63, 294.72 558.28 C 296.20 556.94, 296.58 556.07, 298.41 552.29 C 300.24 548.52, 301.10 545.96, 303.86 539.40 C 306.62 532.84, 308.42 528.54, 312.22 519.50 C 316.02 510.45, 318.31 504.90, 322.85 494.18 C 327.39 483.45, 330.04 477.31, 334.90 465.88 C 339.77 454.45, 342.49 448.25, 347.16 437.03 C 351.84 425.81, 354.27 419.97, 358.28 409.77 C 362.30 399.58, 364.18 394.55, 367.23 386.07 C 370.28 377.60, 371.54 373.56, 373.54 367.40 C 375.55 361.24, 376.53 359.00, 377.25 355.29 C 377.98 351.58, 377.96 350.28, 377.18 348.84 C 376.40 347.40, 374.61 347.08, 373.34 348.07"
        style="stroke: white; fill: white;" />
    <path
        d="M 305.62,369.16 C 306.90 369.83, 307.71 370.15, 310.16 369.31 C 312.61 368.46, 313.58 366.92, 317.85 364.94 C 322.13 362.97, 324.93 361.66, 331.53 359.42 C 338.13 357.17, 342.34 356.05, 350.85 353.72 C 359.35 351.40, 364.31 350.15, 374.06 347.79 C 383.80 345.43, 389.22 344.14, 399.56 341.92 C 409.90 339.70, 415.54 338.63, 425.75 336.69 C 435.96 334.75, 441.32 333.77, 450.62 332.22 C 459.92 330.67, 464.54 329.96, 472.25 328.94 C 479.97 327.92, 483.59 327.57, 489.20 327.10 C 494.80 326.64, 496.99 326.97, 500.30 326.62 C 503.61 326.27, 504.65 326.12, 505.74 325.35 C 506.84 324.58, 506.91 323.56, 505.77 322.77 C 504.63 321.98, 503.46 321.41, 500.05 321.38 C 496.63 321.35, 494.36 321.81, 488.69 322.62 C 483.02 323.42, 479.44 324.09, 471.72 325.40 C 464.00 326.70, 459.39 327.46, 450.08 329.14 C 440.78 330.82, 435.42 331.82, 425.19 333.79 C 414.97 335.76, 409.32 336.83, 398.94 338.99 C 388.57 341.16, 383.12 342.41, 373.31 344.60 C 363.51 346.79, 358.54 347.97, 349.90 349.96 C 341.26 351.95, 337.01 352.87, 330.11 354.56 C 323.21 356.26, 320.16 357.02, 315.41 358.43 C 310.66 359.83, 308.71 360.08, 306.37 361.59 C 304.04 363.09, 303.89 364.42, 303.74 365.93 C 303.58 367.45, 304.34 368.48, 305.62 369.16"
        style="stroke: white; fill: white;" />
    <path
        d="M 342.35,422.42 C 343.50 423.42, 344.42 424.13, 347.54 423.76 C 350.66 423.40, 352.68 422.23, 357.97 420.60 C 363.26 418.97, 366.89 417.79, 373.99 415.63 C 381.09 413.47, 385.50 412.10, 393.47 409.81 C 401.44 407.52, 405.94 406.21, 413.86 404.18 C 421.78 402.15, 425.92 401.07, 433.05 399.65 C 440.19 398.24, 443.71 397.65, 449.54 397.09 C 455.36 396.54, 458.19 396.61, 462.19 396.88 C 466.20 397.16, 467.41 398.22, 469.56 398.47 C 471.71 398.71, 472.03 398.20, 472.95 398.13 C 473.87 398.06, 473.62 398.31, 474.15 398.10 C 474.68 397.89, 475.42 397.80, 475.60 397.09 C 475.78 396.37, 475.97 395.66, 475.05 394.52 C 474.13 393.38, 473.57 392.08, 471.01 391.37 C 468.45 390.66, 466.64 390.72, 462.23 390.95 C 457.82 391.17, 454.95 391.54, 448.95 392.49 C 442.95 393.44, 439.44 394.13, 432.23 395.72 C 425.02 397.31, 420.87 398.42, 412.90 400.44 C 404.94 402.46, 400.42 403.74, 392.38 405.82 C 384.34 407.90, 379.89 409.12, 372.69 410.83 C 365.50 412.54, 361.77 413.35, 356.42 414.38 C 351.07 415.41, 348.87 415.10, 345.94 415.98 C 343.01 416.86, 342.50 417.49, 341.78 418.78 C 341.06 420.07, 341.20 421.43, 342.35 422.42"
        style="stroke: white; fill: white;" />
    <path
        d="M 467.86,444.56 C 466.04 445.47, 464.85 447.61, 462.45 451.42 C 460.06 455.23, 458.70 458.18, 455.89 463.62 C 453.09 469.06, 451.21 472.85, 448.43 478.63 C 445.66 484.42, 444.37 487.60, 442.03 492.54 C 439.68 497.48, 437.90 499.75, 436.73 503.33 C 435.55 506.91, 435.22 508.66, 436.15 510.46 C 437.09 512.26, 439.23 513.30, 441.42 512.33 C 443.61 511.36, 444.58 509.49, 447.11 505.60 C 449.64 501.70, 450.87 498.49, 454.06 492.85 C 457.26 487.21, 459.26 483.57, 463.09 477.38 C 466.91 471.20, 469.22 467.66, 473.21 461.94 C 477.19 456.21, 479.31 453.28, 483.01 448.76 C 486.72 444.23, 488.59 442.16, 491.75 439.31 C 494.90 436.45, 496.31 435.62, 498.81 434.48 C 501.30 433.34, 501.90 433.56, 504.22 433.62 C 506.54 433.69, 507.41 434.19, 510.40 434.80 C 513.38 435.40, 515.16 436.03, 519.13 436.66 C 523.10 437.29, 525.48 437.67, 530.24 437.95 C 535.01 438.23, 537.68 438.30, 542.96 438.06 C 548.24 437.82, 551.13 437.49, 556.64 436.75 C 562.14 436.02, 565.18 435.40, 570.48 434.39 C 575.78 433.37, 578.61 432.59, 583.13 431.67 C 587.65 430.75, 590.15 430.86, 593.10 429.79 C 596.04 428.71, 597.20 427.73, 597.87 426.29 C 598.53 424.86, 598.02 422.96, 596.43 422.62 C 594.84 422.28, 593.17 422.48, 589.91 424.58 C 586.65 426.68, 584.52 429.09, 580.13 433.14 C 575.74 437.19, 572.89 439.81, 567.94 444.84 C 562.99 449.86, 559.92 452.89, 555.38 458.27 C 550.85 463.64, 548.47 466.62, 545.27 471.72 C 542.08 476.81, 540.69 479.27, 539.42 483.75 C 538.15 488.22, 537.69 490.60, 538.91 494.08 C 540.13 497.56, 542.09 499.61, 545.52 501.15 C 548.95 502.68, 551.58 502.53, 556.05 501.75 C 560.51 500.98, 563.04 499.80, 567.84 497.28 C 572.65 494.75, 575.32 492.89, 580.07 489.12 C 584.83 485.34, 587.41 482.98, 591.61 478.41 C 595.80 473.85, 597.94 471.16, 601.04 466.30 C 604.15 461.44, 605.45 458.80, 607.14 454.11 C 608.82 449.43, 609.17 447.03, 609.45 442.89 C 609.74 438.76, 609.54 436.63, 608.56 433.43 C 607.57 430.22, 606.31 428.59, 604.51 426.88 C 602.70 425.17, 601.07 424.60, 599.52 424.89 C 597.97 425.18, 596.72 426.73, 596.74 428.32 C 596.75 429.91, 597.33 431.94, 599.60 432.85 C 601.87 433.76, 603.89 433.25, 608.08 432.87 C 612.27 432.49, 614.98 431.81, 620.55 430.95 C 626.12 430.08, 629.54 429.54, 635.91 428.57 C 642.29 427.60, 645.97 426.88, 652.42 426.08 C 658.86 425.28, 662.40 424.78, 668.13 424.56 C 673.86 424.35, 676.88 424.39, 681.04 424.99 C 685.20 425.58, 686.96 426.33, 688.94 427.54 C 690.92 428.75, 690.87 428.90, 690.93 431.04 C 690.99 433.17, 690.74 434.59, 689.23 438.20 C 687.73 441.81, 686.26 444.45, 683.40 449.06 C 680.53 453.68, 678.31 456.69, 674.90 461.28 C 671.50 465.88, 669.03 468.28, 666.36 472.03 C 663.68 475.78, 661.85 477.41, 661.52 480.04 C 661.18 482.67, 662.55 484.65, 664.67 485.19 C 666.79 485.72, 668.45 485.04, 672.11 482.71 C 675.77 480.37, 677.84 477.72, 682.97 473.51 C 688.10 469.30, 691.43 466.38, 697.76 461.67 C 704.08 456.95, 707.99 454.17, 714.60 449.94 C 721.21 445.72, 724.95 443.47, 730.81 440.54 C 736.66 437.62, 739.81 436.57, 743.87 435.32 C 747.93 434.07, 749.62 434.31, 751.11 434.28 C 752.60 434.26, 751.86 433.79, 751.30 435.19 C 750.73 436.59, 750.06 438.05, 748.28 441.29 C 746.51 444.53, 745.10 447.25, 742.44 451.40 C 739.77 455.55, 737.59 458.17, 734.96 462.03 C 732.33 465.89, 729.96 467.63, 729.28 470.72 C 728.60 473.81, 729.62 476.10, 731.57 477.47 C 733.53 478.85, 735.35 479.06, 739.05 477.60 C 742.75 476.13, 744.87 473.73, 750.08 470.15 C 755.29 466.56, 758.70 463.93, 765.08 459.67 C 771.47 455.42, 775.39 452.74, 781.99 448.88 C 788.60 445.01, 792.38 442.93, 798.12 440.37 C 803.85 437.80, 806.88 436.95, 810.66 436.05 C 814.43 435.15, 815.65 435.41, 816.99 435.88 C 818.34 436.34, 817.62 436.43, 817.39 438.37 C 817.16 440.30, 816.83 441.93, 815.84 445.55 C 814.86 449.16, 813.80 451.90, 812.48 456.44 C 811.16 460.99, 810.06 463.71, 809.26 468.27 C 808.45 472.84, 807.65 475.30, 808.46 479.27 C 809.27 483.23, 810.25 485.75, 813.31 488.11 C 816.38 490.47, 818.93 490.85, 823.80 491.06 C 828.66 491.28, 831.51 490.63, 837.64 489.18 C 843.76 487.73, 848.02 486.08, 854.41 483.81 C 860.80 481.54, 864.49 480.03, 869.59 477.83 C 874.69 475.63, 878.17 474.57, 879.92 472.83 C 881.67 471.10, 880.79 469.11, 878.35 469.17 C 875.91 469.23, 872.86 471.24, 867.72 473.13 C 862.58 475.02, 858.90 476.55, 852.63 478.62 C 846.36 480.69, 842.07 482.30, 836.37 483.49 C 830.66 484.68, 827.86 484.78, 824.12 484.57 C 820.39 484.35, 819.37 483.71, 817.71 482.41 C 816.04 481.12, 816.01 480.64, 815.78 478.10 C 815.55 475.55, 815.74 473.56, 816.56 469.68 C 817.38 465.79, 818.46 463.13, 819.87 458.69 C 821.28 454.24, 822.66 451.71, 823.62 447.47 C 824.58 443.23, 825.56 440.85, 824.68 437.47 C 823.79 434.09, 822.25 431.95, 819.19 430.59 C 816.13 429.22, 813.97 429.53, 809.36 430.65 C 804.75 431.76, 802.06 433.26, 796.14 436.15 C 790.23 439.04, 786.53 441.20, 779.79 445.09 C 773.06 448.97, 769.07 451.58, 762.48 455.57 C 755.89 459.56, 752.21 461.93, 746.85 465.05 C 741.49 468.16, 738.52 469.20, 735.68 471.16 C 732.84 473.12, 732.53 474.21, 732.66 474.83 C 732.79 475.46, 734.57 475.98, 736.33 474.30 C 738.08 472.61, 738.90 470.14, 741.41 466.39 C 743.92 462.63, 746.09 459.88, 748.88 455.54 C 751.67 451.19, 753.64 448.76, 755.37 444.67 C 757.09 440.59, 758.13 438.27, 757.51 435.11 C 756.89 431.95, 755.32 429.86, 752.27 428.86 C 749.21 427.87, 746.92 428.59, 742.21 430.13 C 737.51 431.67, 734.70 433.32, 728.73 436.57 C 722.76 439.82, 719.07 442.13, 712.34 446.40 C 705.61 450.67, 701.66 453.43, 695.08 457.92 C 688.50 462.41, 684.88 465.06, 679.45 468.85 C 674.01 472.65, 671.03 474.29, 667.89 476.89 C 664.75 479.49, 663.95 480.66, 663.73 481.85 C 663.52 483.04, 665.17 483.98, 666.82 482.83 C 668.47 481.68, 669.39 479.69, 672.00 476.10 C 674.61 472.51, 676.52 469.62, 679.88 464.89 C 683.23 460.17, 685.63 457.29, 688.76 452.47 C 691.89 447.66, 693.70 445.26, 695.53 440.82 C 697.37 436.38, 698.52 434.04, 697.93 430.27 C 697.34 426.50, 695.83 424.20, 692.59 421.98 C 689.35 419.77, 686.69 419.70, 681.75 419.19 C 676.80 418.68, 673.85 419.03, 667.86 419.42 C 661.88 419.81, 658.35 420.38, 651.82 421.14 C 645.29 421.90, 641.60 422.59, 635.24 423.24 C 628.87 423.88, 625.43 424.28, 619.99 424.36 C 614.55 424.45, 611.87 423.99, 608.03 423.65 C 604.19 423.31, 602.93 422.27, 600.78 422.67 C 598.64 423.06, 598.19 424.23, 597.29 425.63 C 596.39 427.03, 596.18 428.28, 596.27 429.68 C 596.36 431.09, 596.94 431.30, 597.75 432.65 C 598.56 434.01, 599.38 434.42, 600.32 436.46 C 601.27 438.50, 602.23 439.68, 602.46 442.84 C 602.69 446.00, 602.68 448.14, 601.48 452.26 C 600.28 456.37, 599.20 458.92, 596.44 463.42 C 593.69 467.93, 591.66 470.55, 587.70 474.79 C 583.73 479.02, 581.16 481.26, 576.62 484.59 C 572.07 487.91, 569.32 489.45, 564.97 491.41 C 560.61 493.38, 558.17 493.90, 554.83 494.42 C 551.50 494.93, 550.18 494.53, 548.30 494.00 C 546.41 493.47, 546.05 493.52, 545.41 491.77 C 544.77 490.02, 544.27 488.74, 545.11 485.26 C 545.96 481.77, 546.83 479.12, 549.62 474.35 C 552.40 469.57, 554.65 466.51, 559.04 461.36 C 563.42 456.21, 566.47 453.19, 571.54 448.58 C 576.61 443.98, 579.69 441.72, 584.38 438.33 C 589.07 434.93, 591.99 434.02, 594.98 431.61 C 597.98 429.20, 598.97 428.20, 599.37 426.26 C 599.76 424.32, 598.68 422.83, 596.95 421.90 C 595.22 420.96, 593.82 420.91, 590.72 421.59 C 587.62 422.27, 585.73 423.90, 581.45 425.31 C 577.16 426.72, 574.40 427.49, 569.29 428.63 C 564.18 429.77, 561.20 430.34, 555.90 430.99 C 550.60 431.65, 547.81 431.88, 542.81 431.89 C 537.81 431.90, 535.33 431.64, 530.90 431.04 C 526.47 430.45, 524.44 429.81, 520.67 428.91 C 516.89 428.01, 515.41 427.19, 512.03 426.54 C 508.65 425.88, 507.06 425.27, 503.77 425.65 C 500.47 426.04, 498.76 426.53, 495.57 428.45 C 492.37 430.37, 491.05 431.81, 487.78 435.27 C 484.51 438.73, 482.87 440.94, 479.21 445.76 C 475.55 450.57, 473.51 453.54, 469.48 459.34 C 465.44 465.14, 463.14 468.69, 459.03 474.76 C 454.92 480.82, 452.59 484.30, 448.93 489.65 C 445.27 495.01, 443.12 497.73, 440.74 501.53 C 438.36 505.32, 437.23 506.74, 437.02 508.62 C 436.81 510.51, 438.43 511.49, 439.69 510.95 C 440.96 510.42, 441.83 509.17, 443.35 505.95 C 444.86 502.73, 445.26 499.83, 447.28 494.85 C 449.29 489.87, 450.68 486.74, 453.43 481.04 C 456.19 475.34, 458.19 471.65, 461.06 466.35 C 463.93 461.05, 465.69 458.42, 467.78 454.53 C 469.88 450.64, 471.53 448.89, 471.54 446.90 C 471.56 444.90, 469.67 443.66, 467.86 444.56"
        style="stroke: white; fill: white;" />
    <path
        d="M 1062.79,415.30 C 1064.55 414.95, 1065.83 413.80, 1067.36 411.69 C 1068.88 409.58, 1069.63 407.90, 1070.41 404.74 C 1071.19 401.58, 1071.57 399.34, 1071.25 395.89 C 1070.93 392.44, 1070.41 390.58, 1068.82 387.50 C 1067.24 384.42, 1066.24 382.55, 1063.34 380.49 C 1060.43 378.42, 1058.36 377.54, 1054.28 377.18 C 1050.19 376.82, 1047.86 377.20, 1042.91 378.69 C 1037.96 380.18, 1035.25 381.37, 1029.53 384.63 C 1023.81 387.90, 1020.47 390.06, 1014.31 395.01 C 1008.16 399.97, 1004.64 403.16, 998.76 409.41 C 992.87 415.65, 989.69 419.41, 984.89 426.23 C 980.10 433.04, 977.78 436.85, 974.77 443.49 C 971.76 450.12, 970.64 453.55, 969.84 459.41 C 969.03 465.26, 969.05 468.18, 970.74 472.76 C 972.43 477.33, 974.24 479.61, 978.27 482.28 C 982.31 484.96, 985.30 485.72, 990.92 486.14 C 996.53 486.56, 999.86 486.04, 1006.33 484.39 C 1012.80 482.74, 1016.50 481.30, 1023.28 477.87 C 1030.06 474.44, 1033.78 472.11, 1040.23 467.24 C 1046.69 462.37, 1050.04 459.36, 1055.55 453.53 C 1061.06 447.71, 1063.77 444.34, 1067.76 438.13 C 1071.76 431.92, 1073.42 428.50, 1075.51 422.48 C 1077.61 416.46, 1078.12 413.36, 1078.24 408.03 C 1078.36 402.69, 1077.83 400.10, 1076.12 395.82 C 1074.41 391.54, 1072.76 389.56, 1069.70 386.64 C 1066.65 383.71, 1064.44 382.50, 1060.86 381.20 C 1057.27 379.90, 1054.69 379.57, 1051.78 380.14 C 1048.86 380.72, 1047.14 382.56, 1046.27 384.09 C 1045.39 385.62, 1046.22 386.90, 1047.41 387.80 C 1048.60 388.69, 1050.06 388.25, 1052.22 388.56 C 1054.38 388.87, 1055.64 388.64, 1058.21 389.34 C 1060.78 390.04, 1062.60 390.29, 1065.08 392.07 C 1067.55 393.86, 1069.00 395.07, 1070.60 398.27 C 1072.20 401.46, 1072.96 403.47, 1073.09 408.03 C 1073.22 412.59, 1073.00 415.49, 1071.25 421.07 C 1069.50 426.65, 1068.03 429.99, 1064.32 435.95 C 1060.61 441.90, 1058.00 445.23, 1052.71 450.85 C 1047.41 456.46, 1044.11 459.40, 1037.84 464.03 C 1031.57 468.65, 1027.88 470.84, 1021.35 473.95 C 1014.82 477.07, 1011.18 478.25, 1005.18 479.59 C 999.18 480.93, 996.12 481.07, 991.35 480.67 C 986.58 480.26, 984.47 479.51, 981.32 477.56 C 978.17 475.61, 977.01 474.42, 975.62 470.90 C 974.24 467.38, 973.82 465.13, 974.39 459.98 C 974.97 454.82, 975.76 451.44, 978.49 445.13 C 981.21 438.82, 983.40 435.02, 988.02 428.42 C 992.64 421.81, 995.79 418.10, 1001.58 412.10 C 1007.37 406.11, 1010.91 403.01, 1016.98 398.44 C 1023.06 393.87, 1026.47 391.92, 1031.97 389.24 C 1037.47 386.57, 1040.24 385.84, 1044.48 385.06 C 1048.73 384.28, 1050.52 384.79, 1053.18 385.33 C 1055.84 385.88, 1056.41 386.61, 1057.77 387.79 C 1059.13 388.98, 1059.55 389.62, 1059.98 391.27 C 1060.41 392.91, 1060.18 393.83, 1059.93 396.03 C 1059.68 398.22, 1059.14 399.79, 1058.72 402.25 C 1058.30 404.70, 1057.87 406.05, 1057.84 408.30 C 1057.81 410.54, 1057.59 412.06, 1058.58 413.47 C 1059.57 414.87, 1061.03 415.66, 1062.79 415.30"
        style="stroke: white; fill: white;" />
    <path
        d="M 1262.56,360.48 C 1261.21 360.86, 1260.37 361.05, 1259.27 363.35 C 1258.16 365.65, 1258.57 367.32, 1257.05 371.96 C 1255.53 376.61, 1254.54 379.80, 1251.67 386.59 C 1248.81 393.39, 1246.81 397.65, 1242.73 405.94 C 1238.64 414.23, 1235.95 419.16, 1231.24 428.04 C 1226.52 436.92, 1223.73 441.84, 1219.15 450.35 C 1214.57 458.86, 1212.18 463.35, 1208.35 470.59 C 1204.52 477.83, 1202.67 481.38, 1199.99 486.55 C 1197.31 491.72, 1195.61 493.62, 1194.95 496.43 C 1194.29 499.24, 1195.31 500.26, 1196.70 500.62 C 1198.09 500.98, 1200.30 500.58, 1201.90 498.21 C 1203.49 495.84, 1203.59 493.21, 1204.69 488.77 C 1205.79 484.34, 1206.24 481.05, 1207.40 476.03 C 1208.57 471.02, 1209.40 467.85, 1210.52 463.69 C 1211.64 459.54, 1212.83 457.57, 1213.00 455.27 C 1213.18 452.97, 1211.93 452.19, 1211.42 452.20 C 1210.90 452.20, 1209.75 453.48, 1210.44 455.30 C 1211.14 457.11, 1211.91 459.17, 1214.91 461.29 C 1217.90 463.40, 1220.48 464.46, 1225.43 465.86 C 1230.38 467.26, 1233.29 467.84, 1239.67 468.27 C 1246.05 468.70, 1249.79 468.69, 1257.34 468.00 C 1264.88 467.31, 1269.22 466.55, 1277.39 464.83 C 1285.55 463.11, 1290.14 461.80, 1298.17 459.41 C 1306.21 457.01, 1310.51 455.42, 1317.56 452.87 C 1324.60 450.31, 1328.17 448.92, 1333.38 446.62 C 1338.59 444.32, 1341.34 443.81, 1343.61 441.37 C 1345.89 438.93, 1345.95 436.51, 1344.77 434.43 C 1343.58 432.36, 1341.55 430.90, 1337.70 430.99 C 1333.85 431.07, 1331.05 432.49, 1325.53 434.87 C 1320.00 437.25, 1316.41 439.03, 1310.08 442.86 C 1303.75 446.70, 1299.91 449.25, 1293.87 454.03 C 1287.84 458.80, 1284.56 461.72, 1279.91 466.75 C 1275.26 471.78, 1273.05 474.41, 1270.63 479.16 C 1268.21 483.91, 1267.22 486.53, 1267.81 490.52 C 1268.40 494.51, 1270.07 496.93, 1273.57 499.09 C 1277.07 501.26, 1280.00 501.48, 1285.31 501.35 C 1290.61 501.22, 1293.92 500.40, 1300.08 498.44 C 1306.23 496.48, 1309.82 494.82, 1316.10 491.55 C 1322.37 488.28, 1325.86 486.14, 1331.45 482.07 C 1337.04 478.01, 1339.86 475.60, 1344.05 471.23 C 1348.25 466.85, 1350.06 464.49, 1352.40 460.20 C 1354.75 455.92, 1355.52 453.67, 1355.78 449.80 C 1356.04 445.92, 1355.24 443.81, 1353.70 440.84 C 1352.17 437.88, 1350.47 436.24, 1348.11 434.97 C 1345.74 433.70, 1343.64 433.61, 1341.88 434.50 C 1340.12 435.39, 1339.07 437.46, 1339.32 439.43 C 1339.57 441.39, 1340.35 443.42, 1343.12 444.32 C 1345.89 445.21, 1348.24 444.21, 1353.17 443.90 C 1358.10 443.58, 1361.26 443.32, 1367.76 442.74 C 1374.26 442.15, 1378.20 441.75, 1385.66 440.96 C 1393.12 440.17, 1397.42 439.59, 1405.05 438.77 C 1412.68 437.95, 1416.76 437.46, 1423.79 436.87 C 1430.82 436.27, 1434.65 436.06, 1440.19 435.80 C 1445.73 435.54, 1448.00 435.86, 1451.48 435.55 C 1454.97 435.24, 1456.37 435.07, 1457.59 434.24 C 1458.82 433.41, 1458.86 432.23, 1457.61 431.39 C 1456.36 430.54, 1454.89 430.14, 1451.34 430.01 C 1447.79 429.89, 1445.43 430.25, 1439.84 430.75 C 1434.25 431.25, 1430.42 431.76, 1423.37 432.53 C 1416.32 433.30, 1412.23 433.81, 1404.61 434.58 C 1396.99 435.36, 1392.68 435.89, 1385.26 436.40 C 1377.84 436.90, 1373.90 437.17, 1367.53 437.11 C 1361.16 437.05, 1358.01 436.71, 1353.41 436.09 C 1348.82 435.48, 1347.09 433.88, 1344.57 434.03 C 1342.06 434.17, 1341.58 435.44, 1340.82 436.83 C 1340.06 438.21, 1340.31 439.67, 1340.80 440.94 C 1341.28 442.21, 1342.06 442.33, 1343.26 443.17 C 1344.45 444.01, 1345.68 443.83, 1346.77 445.12 C 1347.85 446.41, 1348.61 447.12, 1348.70 449.61 C 1348.80 452.11, 1348.90 453.95, 1347.24 457.59 C 1345.58 461.24, 1344.10 463.69, 1340.39 467.83 C 1336.68 471.96, 1333.98 474.40, 1328.68 478.28 C 1323.38 482.16, 1319.93 484.23, 1313.89 487.21 C 1307.86 490.19, 1304.25 491.59, 1298.51 493.17 C 1292.77 494.76, 1289.54 495.09, 1285.18 495.15 C 1280.82 495.21, 1279.01 494.57, 1276.72 493.48 C 1274.43 492.39, 1274.03 492.11, 1273.74 489.71 C 1273.46 487.31, 1273.39 485.45, 1275.30 481.48 C 1277.21 477.51, 1279.05 474.63, 1283.31 469.85 C 1287.58 465.06, 1290.78 462.08, 1296.64 457.57 C 1302.50 453.05, 1306.37 450.63, 1312.60 447.27 C 1318.84 443.91, 1322.58 442.57, 1327.82 440.79 C 1333.05 439.00, 1335.84 439.25, 1338.78 438.34 C 1341.72 437.43, 1342.35 436.63, 1342.52 436.24 C 1342.70 435.84, 1341.91 435.20, 1339.64 436.38 C 1337.38 437.56, 1335.90 439.60, 1331.19 442.13 C 1326.48 444.66, 1322.92 446.31, 1316.10 449.03 C 1309.27 451.75, 1304.97 453.35, 1297.07 455.74 C 1289.17 458.12, 1284.61 459.38, 1276.60 460.95 C 1268.59 462.51, 1264.28 463.18, 1257.01 463.57 C 1249.74 463.96, 1246.06 463.80, 1240.25 462.91 C 1234.44 462.01, 1231.86 461.00, 1227.96 459.09 C 1224.06 457.17, 1223.20 455.20, 1220.75 453.32 C 1218.30 451.44, 1217.81 450.49, 1215.72 449.69 C 1213.63 448.88, 1212.36 448.69, 1210.29 449.30 C 1208.23 449.90, 1206.82 450.22, 1205.39 452.71 C 1203.96 455.21, 1204.21 457.49, 1203.14 461.78 C 1202.08 466.08, 1201.41 469.24, 1200.06 474.18 C 1198.71 479.12, 1197.70 482.20, 1196.39 486.49 C 1195.09 490.78, 1193.57 492.78, 1193.55 495.62 C 1193.53 498.45, 1194.87 500.02, 1196.29 500.67 C 1197.71 501.32, 1199.10 501.29, 1200.67 498.85 C 1202.23 496.41, 1201.95 493.79, 1204.12 488.47 C 1206.30 483.14, 1207.97 479.53, 1211.55 472.22 C 1215.13 464.90, 1217.50 460.41, 1222.02 451.88 C 1226.55 443.36, 1229.35 438.45, 1234.16 429.61 C 1238.98 420.77, 1241.72 415.87, 1246.10 407.68 C 1250.49 399.49, 1252.65 395.31, 1256.10 388.67 C 1259.55 382.04, 1261.14 379.06, 1263.36 374.53 C 1265.57 369.99, 1266.64 368.59, 1267.17 365.98 C 1267.70 363.37, 1266.93 362.58, 1266.01 361.48 C 1265.08 360.38, 1263.90 360.11, 1262.56 360.48"
        style="stroke: white; fill: white;" />
    <path
        d="M 1561.06,486.81 C 1562.79 486.33, 1563.81 484.97, 1566.62 481.79 C 1569.43 478.60, 1570.89 476.17, 1575.11 470.87 C 1579.33 465.58, 1582.12 462.05, 1587.71 455.31 C 1593.30 448.58, 1596.57 444.63, 1603.06 437.19 C 1609.54 429.74, 1613.23 425.63, 1620.13 418.10 C 1627.04 410.56, 1630.82 406.50, 1637.58 399.51 C 1644.34 392.53, 1647.89 388.95, 1653.94 383.18 C 1659.98 377.41, 1662.97 374.64, 1667.81 370.66 C 1672.65 366.67, 1675.51 365.27, 1678.13 363.24 C 1680.75 361.20, 1680.81 360.24, 1680.91 360.48 C 1681.02 360.73, 1680.12 361.10, 1678.66 364.47 C 1677.20 367.84, 1676.45 370.94, 1673.60 377.34 C 1670.75 383.74, 1668.58 388.17, 1664.41 396.49 C 1660.25 404.81, 1657.49 409.80, 1652.76 418.93 C 1648.02 428.05, 1645.25 433.09, 1640.75 442.10 C 1636.25 451.11, 1633.89 455.86, 1630.26 463.99 C 1626.63 472.12, 1624.96 476.07, 1622.60 482.75 C 1620.23 489.43, 1619.43 492.30, 1618.44 497.37 C 1617.44 502.44, 1617.10 504.69, 1617.64 508.11 C 1618.18 511.53, 1619.57 512.73, 1621.12 514.47 C 1622.66 516.22, 1623.91 516.53, 1625.38 516.85 C 1626.85 517.17, 1627.81 516.84, 1628.47 516.07 C 1629.14 515.30, 1628.91 513.84, 1628.70 513.00 C 1628.49 512.17, 1627.92 512.41, 1627.42 511.91 C 1626.91 511.41, 1626.78 511.53, 1626.17 510.52 C 1625.55 509.51, 1624.93 509.34, 1624.35 506.85 C 1623.78 504.36, 1622.92 502.64, 1623.31 498.06 C 1623.69 493.48, 1624.26 490.51, 1626.26 483.96 C 1628.26 477.41, 1629.85 473.41, 1633.30 465.31 C 1636.76 457.22, 1639.08 452.47, 1643.56 443.50 C 1648.03 434.53, 1650.80 429.50, 1655.67 420.47 C 1660.54 411.43, 1663.41 406.51, 1667.91 398.32 C 1672.41 390.14, 1674.86 385.94, 1678.17 379.54 C 1681.48 373.14, 1683.51 370.57, 1684.47 366.31 C 1685.42 362.06, 1684.80 359.81, 1682.95 358.26 C 1681.10 356.71, 1678.81 356.73, 1675.22 358.57 C 1671.63 360.40, 1669.73 363.03, 1664.99 367.46 C 1660.26 371.89, 1657.46 374.74, 1651.52 380.71 C 1645.59 386.69, 1642.06 390.28, 1635.32 397.34 C 1628.59 404.39, 1624.81 408.47, 1617.85 416.00 C 1610.89 423.52, 1607.18 427.61, 1600.54 434.95 C 1593.90 442.28, 1590.51 446.14, 1584.65 452.67 C 1578.79 459.21, 1575.78 462.56, 1571.25 467.61 C 1566.72 472.65, 1564.67 474.60, 1562.01 477.91 C 1559.36 481.22, 1558.15 482.39, 1557.96 484.17 C 1557.77 485.95, 1559.33 487.29, 1561.06 486.81"
        style="stroke: white; fill: white;" />
</svg>